<svg xmlns="http://www.w3.org/2000/svg" xmlns:xlink="http://www.w3.org/1999/xlink" width="500" zoomAndPan="magnify" viewBox="0 0 375 374.999991" height="500" preserveAspectRatio="xMidYMid meet" version="1.0"><defs><clipPath id="id1"><path d="M 210 55.457031 L 222 55.457031 L 222 66 L 210 66 Z M 210 55.457031 " clip-rule="nonzero"/></clipPath><clipPath id="id2"><path d="M 59 167 L 319.707031 167 L 319.707031 319 L 59 319 Z M 59 167 " clip-rule="nonzero"/></clipPath><clipPath id="id3"><path d="M 54.957031 56 L 219 56 L 219 252 L 54.957031 252 Z M 54.957031 56 " clip-rule="nonzero"/></clipPath><clipPath id="id4"><path d="M 215 55.457031 L 219 55.457031 L 219 59 L 215 59 Z M 215 55.457031 " clip-rule="nonzero"/></clipPath></defs><path fill="rgb(76.858521%, 85.879517%, 95.289612%)" d="M 223.011719 167.621094 C 223.011719 167.621094 221.652344 171.132812 222.214844 172.539062 C 223.011719 174.535156 227.261719 174.535156 228.722656 175.46875 C 230.1875 176.398438 231.25 177.328125 234.570312 177.992188 C 237.890625 178.660156 237.890625 178.925781 238.820312 178.128906 C 239.753906 177.328125 240.152344 175.335938 238.023438 173.472656 C 235.898438 171.609375 229.390625 167.488281 228.722656 165.757812 C 228.0625 164.03125 224.074219 165.359375 223.011719 167.621094 " fill-opacity="1" fill-rule="nonzero"/><path fill="rgb(45.098877%, 53.329468%, 80.389404%)" d="M 223.277344 166.023438 C 223.277344 166.023438 221.917969 169.539062 222.480469 170.945312 C 223.277344 172.941406 227.527344 172.941406 228.992188 173.871094 C 230.453125 174.800781 231.382812 176.53125 234.703125 177.195312 C 238.023438 177.859375 238.023438 178.128906 238.957031 177.328125 C 239.886719 176.53125 240.152344 174.667969 236.695312 172.011719 C 234.457031 170.285156 229.652344 165.890625 228.992188 164.164062 C 228.324219 162.433594 224.339844 163.765625 223.277344 166.023438 " fill-opacity="1" fill-rule="nonzero"/><path fill="rgb(76.858521%, 85.879517%, 95.289612%)" d="M 209.722656 173.738281 C 209.722656 173.738281 208.925781 177.726562 209.59375 179.324219 C 210.253906 180.917969 211.71875 182.515625 212.25 183.714844 C 212.78125 184.910156 213.710938 186.636719 216.5 187.570312 C 219.292969 188.5 221.949219 189.429688 223.011719 188.101562 C 224.074219 186.769531 223.011719 184.777344 222.082031 183.3125 C 221.152344 181.851562 216.5 175.335938 216.101562 173.605469 C 215.703125 171.875 209.722656 173.738281 209.722656 173.738281 " fill-opacity="1" fill-rule="nonzero"/><path fill="rgb(45.098877%, 53.329468%, 80.389404%)" d="M 210.523438 171.875 C 210.523438 171.875 208.660156 174.535156 209.324219 176.132812 C 209.992188 177.726562 212.117188 179.457031 212.648438 180.652344 C 213.179688 181.851562 213.578125 185.707031 216.367188 186.636719 C 219.160156 187.570312 222.347656 188.5 223.410156 187.167969 C 224.472656 185.839844 223.011719 182.78125 222.082031 181.316406 C 221.152344 179.855469 216.5 173.339844 216.101562 171.609375 C 215.703125 169.882812 210.523438 171.875 210.523438 171.875 " fill-opacity="1" fill-rule="nonzero"/><g clip-path="url(#id1)"><path fill="rgb(97.648621%, 69.018555%, 67.83905%)" d="M 210.140625 59.972656 C 210.140625 59.972656 210.078125 59.417969 212.308594 58.015625 C 214.542969 56.617188 216.574219 55.585938 216.976562 55.882812 C 217.375 56.179688 218.941406 58.261719 219.308594 59.136719 C 219.675781 60.015625 220.511719 61.589844 218.738281 61.914062 C 216.960938 62.242188 216.984375 62.492188 216.984375 62.492188 C 216.984375 62.492188 217.394531 63.152344 217.988281 63.234375 C 218.585938 63.3125 220.019531 62.882812 220.714844 63.296875 C 221.410156 63.710938 221.984375 64.0625 221.65625 64.523438 C 221.328125 64.988281 220.335938 64.976562 219.3125 64.867188 C 218.292969 64.753906 216.832031 65.09375 216.183594 65.183594 C 215.535156 65.273438 211.996094 64.414062 211.292969 63.117188 C 210.59375 61.816406 210.140625 59.972656 210.140625 59.972656 " fill-opacity="1" fill-rule="nonzero"/></g><path fill="rgb(10.198975%, 12.548828%, 16.079712%)" d="M 228.859375 71.269531 C 228.859375 71.269531 223.875 68.476562 220.683594 69.074219 C 217.496094 69.671875 212.515625 71.070312 210.519531 70.671875 C 208.527344 70.269531 203.746094 68.875 200.953125 70.867188 C 198.164062 72.863281 198.960938 74.460938 200.554688 76.855469 C 202.152344 79.246094 206.535156 79.449219 211.316406 80.046875 C 216.101562 80.644531 217.699219 81.042969 217.699219 81.042969 C 217.699219 81.042969 223.277344 86.03125 225.867188 83.636719 C 228.460938 81.242188 229.257812 73.460938 228.859375 71.269531 " fill-opacity="1" fill-rule="nonzero"/><path fill="rgb(97.648621%, 69.018555%, 67.83905%)" d="M 209.523438 60.296875 C 209.523438 60.296875 199.164062 69.472656 198.5625 73.0625 C 197.964844 76.652344 200.15625 78.449219 202.152344 78.25 C 204.144531 78.050781 208.730469 71.070312 210.917969 68.476562 C 213.113281 65.882812 213.113281 64.085938 213.113281 64.085938 C 213.113281 64.085938 210.722656 60.097656 209.523438 60.296875 " fill-opacity="1" fill-rule="nonzero"/><path fill="rgb(16.079712%, 19.999695%, 27.449036%)" d="M 235.433594 73.859375 C 235.433594 73.859375 231.25 71.46875 228.859375 71.269531 C 226.464844 71.070312 219.890625 75.855469 218.097656 78.847656 C 216.300781 81.839844 209.722656 96.003906 208.128906 103.984375 C 206.535156 111.964844 207.332031 116.953125 207.332031 116.953125 C 207.332031 116.953125 209.125 122.539062 221.082031 119.945312 C 233.042969 117.351562 234.238281 114.160156 234.238281 114.160156 L 234.238281 106.179688 C 234.238281 106.179688 238.820312 101.789062 242.808594 96.804688 C 246.792969 91.816406 250.78125 85.628906 248.1875 82.042969 C 245.597656 78.449219 235.433594 73.859375 235.433594 73.859375 " fill-opacity="1" fill-rule="nonzero"/><path fill="rgb(10.198975%, 12.548828%, 16.079712%)" d="M 210.390625 111.898438 C 210.390625 111.898438 206.402344 115.222656 206.933594 117.347656 C 207.464844 119.476562 208.53125 141.421875 208.398438 144.347656 C 208.261719 147.273438 205.605469 152.328125 205.605469 156.582031 C 205.605469 160.839844 208.132812 172.140625 208.132812 172.140625 C 208.132812 172.140625 209.328125 174.667969 212.914062 173.605469 C 216.5 172.539062 216.238281 172.273438 216.5 171.210938 C 216.765625 170.148438 215.96875 151.660156 217.832031 149.402344 C 219.691406 147.140625 217.832031 149.535156 220.753906 139.957031 C 223.675781 130.382812 224.339844 116.417969 223.941406 114.289062 C 223.542969 112.160156 210.390625 111.898438 210.390625 111.898438 " fill-opacity="1" fill-rule="nonzero"/><path fill="rgb(16.079712%, 19.999695%, 27.449036%)" d="M 218.09375 117.351562 C 218.09375 117.351562 222.746094 135.4375 221.414062 141.820312 C 220.089844 148.203125 221.152344 151.394531 221.816406 154.453125 C 222.480469 157.515625 222.480469 166.554688 222.480469 166.554688 C 222.480469 166.554688 223.277344 168.550781 227.394531 167.886719 C 231.515625 167.222656 230.585938 162.699219 230.453125 159.375 C 230.320312 156.050781 231.25 143.019531 231.78125 138.894531 C 232.3125 134.773438 235.234375 129.851562 234.304688 120.808594 C 233.375 111.765625 232.976562 112.828125 232.976562 112.828125 L 218.09375 117.351562 " fill-opacity="1" fill-rule="nonzero"/><path fill="rgb(27.059937%, 30.589294%, 37.649536%)" d="M 243.210938 90.878906 L 248.1875 82.042969 C 248.1875 82.042969 253.160156 88.398438 251.765625 95.378906 C 250.367188 102.363281 236.785156 112.339844 234.394531 112.9375 C 232.003906 113.535156 231.023438 105.761719 231.023438 105.761719 C 238.273438 99.601562 239.292969 96.550781 243.210938 90.878906 " fill-opacity="1" fill-rule="nonzero"/><path fill="rgb(27.059937%, 30.589294%, 37.649536%)" d="M 238.90625 58.625 C 238.90625 58.625 235.617188 57.355469 232.707031 65.207031 C 229.796875 73.054688 229.796875 75.96875 230.8125 78.5 C 231.824219 81.03125 234.605469 83.183594 234.605469 83.183594 C 234.605469 83.183594 233.847656 75.585938 235.363281 72.296875 C 236.882812 69.003906 239.285156 64.445312 239.285156 64.445312 L 238.90625 58.625 " fill-opacity="1" fill-rule="nonzero"/><path fill="rgb(81.17981%, 44.709778%, 43.528748%)" d="M 237.777344 69.324219 C 237.777344 69.324219 237.726562 71.519531 236.777344 72.316406 C 235.832031 73.113281 235.675781 71.757812 234.480469 74.699219 C 233.28125 77.640625 231.75 81.492188 235.535156 82.789062 C 239.320312 84.085938 241.664062 81.042969 243.257812 79.097656 C 244.851562 77.152344 245.449219 72.566406 245.449219 72.566406 L 237.777344 69.324219 " fill-opacity="1" fill-rule="nonzero"/><path fill="rgb(94.898987%, 35.289001%, 16.468811%)" d="M 241.707031 72.867188 C 241.707031 72.867188 242.472656 75.207031 245.691406 73.667969 C 248.910156 72.128906 251.96875 64.164062 247.226562 60.535156 C 242.480469 56.90625 238.777344 58.445312 236.921875 59.699219 C 235.066406 60.953125 234.089844 61.433594 234.757812 63.96875 C 235.421875 66.503906 241.707031 72.867188 241.707031 72.867188 " fill-opacity="1" fill-rule="nonzero"/><path fill="rgb(97.648621%, 69.018555%, 67.83905%)" d="M 245.996094 69.042969 C 245.753906 68.972656 247.808594 67.667969 247.847656 68.695312 C 247.886719 69.722656 247.386719 71.257812 246.265625 72.144531 C 245.148438 73.027344 244.503906 72.757812 244.503906 72.757812 C 244.503906 72.757812 242.996094 75.628906 241.765625 75.953125 C 240.539062 76.28125 237.75 76.824219 236.925781 76.683594 C 236.101562 76.546875 234.613281 75.957031 234.261719 75.328125 C 233.90625 74.703125 233.71875 72.539062 233.769531 71.894531 C 233.816406 71.246094 233.867188 70.042969 233.695312 69.058594 C 233.523438 68.078125 234.058594 67.902344 234 66.699219 C 233.941406 65.492188 234.601562 62.753906 235.5625 61.84375 C 236.527344 60.9375 235.363281 61.910156 237.296875 62.949219 C 239.230469 63.984375 240.441406 62.476562 241.863281 63.195312 C 243.285156 63.917969 244.035156 65.082031 243.757812 67.066406 C 243.476562 69.050781 244.003906 70.660156 244.628906 70.75 C 245.25 70.84375 245.996094 69.042969 245.996094 69.042969 " fill-opacity="1" fill-rule="nonzero"/><path fill="rgb(27.059937%, 30.589294%, 37.649536%)" d="M 239.03125 59.890625 C 239.03125 59.890625 240.515625 60.808594 241.863281 63.195312 C 243.207031 65.585938 244.789062 68.582031 243.460938 72.929688 C 241.054688 80.777344 234.226562 83.058594 234.226562 83.058594 C 234.226562 83.058594 240.425781 83.816406 242.828125 82.296875 C 245.230469 80.777344 245.863281 79.640625 245.863281 79.640625 C 245.863281 79.640625 252.945312 68.625 249.53125 62.039062 C 246.117188 55.457031 237.640625 59 237.640625 59 L 235.492188 60.773438 C 235.492188 60.773438 236.375 59.382812 239.03125 59.890625 " fill-opacity="1" fill-rule="nonzero"/><path fill="rgb(97.648621%, 69.018555%, 67.83905%)" d="M 232.457031 105.171875 C 232.457031 105.171875 229.75 105.285156 227.453125 106.121094 C 225.15625 106.957031 219.3125 110.929688 219.3125 110.929688 L 217.851562 116.570312 C 217.851562 116.570312 232.675781 115.941406 235.804688 111.972656 C 238.9375 108.003906 232.457031 105.171875 232.457031 105.171875 " fill-opacity="1" fill-rule="nonzero"/><path fill="rgb(97.648621%, 69.018555%, 67.83905%)" d="M 214.847656 111.449219 C 214.847656 111.449219 215.558594 108.875 217.066406 108.175781 C 218.570312 107.476562 217.375 106.460938 218.71875 105.59375 C 220.0625 104.730469 220.1875 105.65625 220.128906 106.628906 C 220.074219 107.605469 219.328125 108.175781 219.042969 108.523438 C 218.761719 108.867188 218.058594 110.117188 218.929688 110.304688 C 219.804688 110.492188 220.667969 109.902344 220.804688 111.605469 C 220.9375 113.308594 219.632812 118.273438 218.496094 117.886719 C 217.359375 117.496094 214.316406 116.234375 214.398438 114.054688 C 214.480469 111.875 214.847656 111.449219 214.847656 111.449219 " fill-opacity="1" fill-rule="nonzero"/><g clip-path="url(#id2)"><path fill="rgb(57.249451%, 71.759033%, 89.7995%)" d="M 59.914062 253.289062 L 68.210938 253.289062 L 214.757812 168.492188 C 216.839844 167.292969 220.472656 167.445312 222.875 168.832031 L 311.226562 219.890625 L 318.992188 219.890625 L 318.992188 225.347656 C 319.179688 226.296875 318.75 227.246094 317.589844 227.917969 L 164.148438 316.699219 C 162.070312 317.902344 155.296875 319.453125 152.898438 318.066406 L 61.902344 261.964844 C 60.3125 261.046875 59.667969 259.820312 60.011719 258.746094 C 59.914062 258.746094 59.914062 253.289062 59.914062 253.289062 " fill-opacity="1" fill-rule="nonzero"/></g><path fill="rgb(76.858521%, 85.879517%, 95.289612%)" d="M 164.148438 310.621094 L 317.589844 221.839844 C 319.667969 220.636719 319.410156 218.539062 317.007812 217.148438 L 222.875 162.75 C 220.472656 161.363281 216.839844 161.214844 214.761719 162.414062 L 61.320312 251.199219 C 59.238281 252.402344 59.5 254.5 61.902344 255.886719 L 152.898438 311.988281 C 155.296875 313.375 162.070312 311.824219 164.148438 310.621094 " fill-opacity="1" fill-rule="nonzero"/><path fill="rgb(48.239136%, 65.879822%, 87.059021%)" d="M 140.046875 289.53125 L 281.410156 207.730469 C 283.1875 206.703125 282.964844 204.90625 280.910156 203.71875 L 219.425781 168.367188 C 217.371094 167.179688 214.265625 167.050781 212.484375 168.082031 L 71.121094 249.882812 C 69.34375 250.914062 69.566406 252.710938 71.621094 253.894531 L 133.101562 289.246094 C 135.160156 290.433594 138.265625 290.558594 140.046875 289.53125 " fill-opacity="1" fill-rule="nonzero"/><path fill="rgb(57.249451%, 71.759033%, 89.7995%)" d="M 222.902344 173.820312 L 217.167969 170.503906 C 215.542969 169.566406 213.089844 169.464844 211.683594 170.277344 L 205.089844 174.089844 C 203.683594 174.902344 203.859375 176.320312 205.480469 177.257812 L 211.21875 180.570312 C 212.839844 181.507812 215.292969 181.609375 216.699219 180.800781 L 223.296875 176.988281 C 224.699219 176.175781 224.523438 174.757812 222.902344 173.820312 " fill-opacity="1" fill-rule="nonzero"/><path fill="rgb(57.249451%, 71.759033%, 89.7995%)" d="M 209.746094 181.421875 L 204.007812 178.109375 C 202.386719 177.171875 199.933594 177.070312 198.527344 177.882812 L 191.929688 181.695312 C 190.527344 182.503906 190.703125 183.921875 192.324219 184.859375 L 198.0625 188.175781 C 199.683594 189.113281 202.136719 189.214844 203.539062 188.402344 L 210.136719 184.589844 C 211.542969 183.78125 211.367188 182.359375 209.746094 181.421875 " fill-opacity="1" fill-rule="nonzero"/><path fill="rgb(57.249451%, 71.759033%, 89.7995%)" d="M 196.585938 189.027344 L 190.851562 185.710938 C 189.226562 184.777344 186.773438 184.671875 185.367188 185.484375 L 178.773438 189.296875 C 177.367188 190.109375 177.542969 191.527344 179.164062 192.464844 L 184.902344 195.78125 C 186.523438 196.714844 188.976562 196.820312 190.382812 196.007812 L 196.980469 192.195312 C 198.382812 191.382812 198.207031 189.964844 196.585938 189.027344 " fill-opacity="1" fill-rule="nonzero"/><path fill="rgb(57.249451%, 71.759033%, 89.7995%)" d="M 183.425781 196.632812 L 177.691406 193.316406 C 176.070312 192.378906 173.613281 192.277344 172.210938 193.089844 L 165.613281 196.902344 C 164.210938 197.714844 164.386719 199.132812 166.007812 200.070312 L 171.742188 203.382812 C 173.363281 204.320312 175.820312 204.421875 177.226562 203.609375 L 183.820312 199.796875 C 185.226562 198.988281 185.050781 197.570312 183.425781 196.632812 " fill-opacity="1" fill-rule="nonzero"/><path fill="rgb(57.249451%, 71.759033%, 89.7995%)" d="M 170.269531 204.234375 L 164.53125 200.921875 C 162.910156 199.984375 160.457031 199.882812 159.050781 200.691406 L 152.457031 204.503906 C 151.050781 205.316406 151.226562 206.734375 152.847656 207.671875 L 158.585938 210.988281 C 160.207031 211.925781 162.660156 212.027344 164.066406 211.214844 L 170.664062 207.402344 C 172.066406 206.59375 171.890625 205.171875 170.269531 204.234375 " fill-opacity="1" fill-rule="nonzero"/><path fill="rgb(57.249451%, 71.759033%, 89.7995%)" d="M 157.109375 211.839844 L 151.375 208.523438 C 149.753906 207.585938 147.296875 207.484375 145.894531 208.296875 L 139.296875 212.109375 C 137.890625 212.921875 138.066406 214.339844 139.691406 215.277344 L 145.425781 218.59375 C 147.046875 219.527344 149.503906 219.632812 150.90625 218.820312 L 157.503906 215.007812 C 158.910156 214.195312 158.734375 212.777344 157.109375 211.839844 " fill-opacity="1" fill-rule="nonzero"/><path fill="rgb(57.249451%, 71.759033%, 89.7995%)" d="M 143.953125 219.445312 L 138.214844 216.128906 C 136.59375 215.191406 134.140625 215.089844 132.734375 215.902344 L 126.136719 219.714844 C 124.734375 220.523438 124.910156 221.941406 126.53125 222.882812 L 132.269531 226.195312 C 133.890625 227.132812 136.34375 227.234375 137.75 226.421875 L 144.34375 222.613281 C 145.75 221.800781 145.574219 220.382812 143.953125 219.445312 " fill-opacity="1" fill-rule="nonzero"/><path fill="rgb(57.249451%, 71.759033%, 89.7995%)" d="M 130.792969 227.046875 L 125.058594 223.734375 C 123.433594 222.796875 120.980469 222.695312 119.574219 223.507812 L 112.980469 227.316406 C 111.574219 228.128906 111.75 229.546875 113.375 230.484375 L 119.109375 233.800781 C 120.730469 234.738281 123.1875 234.839844 124.589844 234.027344 L 131.1875 230.214844 C 132.59375 229.402344 132.417969 227.984375 130.792969 227.046875 " fill-opacity="1" fill-rule="nonzero"/><path fill="rgb(57.249451%, 71.759033%, 89.7995%)" d="M 117.636719 234.652344 L 111.898438 231.335938 C 110.277344 230.402344 107.824219 230.296875 106.417969 231.109375 L 99.820312 234.921875 C 98.417969 235.734375 98.59375 237.152344 100.214844 238.089844 L 105.953125 241.40625 C 107.574219 242.34375 110.027344 242.441406 111.433594 241.628906 L 118.027344 237.820312 C 119.433594 237.007812 119.257812 235.589844 117.636719 234.652344 " fill-opacity="1" fill-rule="nonzero"/><path fill="rgb(57.249451%, 71.759033%, 89.7995%)" d="M 104.476562 242.253906 L 98.742188 238.941406 C 97.117188 238.003906 94.664062 237.902344 93.257812 238.710938 L 86.664062 242.523438 C 85.257812 243.335938 85.433594 244.757812 87.058594 245.695312 L 92.792969 249.007812 C 94.414062 249.945312 96.871094 250.046875 98.273438 249.234375 L 104.871094 245.425781 C 106.277344 244.613281 106.097656 243.195312 104.476562 242.253906 " fill-opacity="1" fill-rule="nonzero"/><path fill="rgb(57.249451%, 71.759033%, 89.7995%)" d="M 91.320312 249.859375 L 85.582031 246.542969 C 83.960938 245.605469 81.507812 245.507812 80.101562 246.320312 L 73.503906 250.128906 C 72.101562 250.941406 72.277344 252.359375 73.898438 253.296875 L 79.636719 256.613281 C 81.257812 257.550781 83.710938 257.652344 85.117188 256.839844 L 91.710938 253.027344 C 93.117188 252.214844 92.941406 250.796875 91.320312 249.859375 " fill-opacity="1" fill-rule="nonzero"/><path fill="rgb(57.249451%, 71.759033%, 89.7995%)" d="M 236.289062 181.558594 L 230.554688 178.242188 C 228.929688 177.304688 226.476562 177.203125 225.074219 178.015625 L 214.558594 184.089844 C 213.152344 184.902344 213.328125 186.320312 214.949219 187.257812 L 220.6875 190.574219 C 222.308594 191.511719 224.765625 191.613281 226.167969 190.800781 L 236.683594 184.722656 C 238.089844 183.914062 237.910156 182.492188 236.289062 181.558594 " fill-opacity="1" fill-rule="nonzero"/><path fill="rgb(57.249451%, 71.759033%, 89.7995%)" d="M 220.34375 190.769531 L 214.609375 187.457031 C 212.988281 186.519531 210.53125 186.417969 209.128906 187.230469 L 202.53125 191.039062 C 201.125 191.851562 201.304688 193.269531 202.925781 194.207031 L 208.660156 197.523438 C 210.285156 198.460938 212.738281 198.5625 214.140625 197.75 L 220.738281 193.9375 C 222.144531 193.125 221.964844 191.707031 220.34375 190.769531 " fill-opacity="1" fill-rule="nonzero"/><path fill="rgb(57.249451%, 71.759033%, 89.7995%)" d="M 208.710938 197.492188 L 202.976562 194.179688 C 201.355469 193.242188 198.898438 193.136719 197.496094 193.949219 L 190.898438 197.761719 C 189.492188 198.574219 189.671875 199.992188 191.292969 200.929688 L 197.027344 204.246094 C 198.648438 205.183594 201.105469 205.285156 202.511719 204.472656 L 209.105469 200.660156 C 210.511719 199.847656 210.335938 198.429688 208.710938 197.492188 " fill-opacity="1" fill-rule="nonzero"/><path fill="rgb(57.249451%, 71.759033%, 89.7995%)" d="M 197.078125 204.214844 L 191.34375 200.902344 C 189.722656 199.960938 187.265625 199.863281 185.863281 200.671875 L 179.265625 204.484375 C 177.863281 205.296875 178.035156 206.714844 179.660156 207.652344 L 185.394531 210.96875 C 187.015625 211.90625 189.472656 212.007812 190.878906 211.195312 L 197.472656 207.382812 C 198.878906 206.570312 198.703125 205.152344 197.078125 204.214844 " fill-opacity="1" fill-rule="nonzero"/><path fill="rgb(57.249451%, 71.759033%, 89.7995%)" d="M 185.445312 210.9375 L 179.710938 207.625 C 178.085938 206.6875 175.632812 206.585938 174.230469 207.394531 L 167.632812 211.207031 C 166.226562 212.019531 166.40625 213.4375 168.027344 214.375 L 173.761719 217.691406 C 175.386719 218.628906 177.839844 218.730469 179.242188 217.917969 L 185.839844 214.105469 C 187.246094 213.292969 187.066406 211.875 185.445312 210.9375 " fill-opacity="1" fill-rule="nonzero"/><path fill="rgb(57.249451%, 71.759033%, 89.7995%)" d="M 173.8125 217.660156 L 168.078125 214.347656 C 166.457031 213.410156 164 213.308594 162.597656 214.117188 L 156 217.929688 C 154.59375 218.742188 154.773438 220.160156 156.394531 221.097656 L 162.128906 224.414062 C 163.75 225.351562 166.207031 225.453125 167.613281 224.640625 L 174.207031 220.828125 C 175.613281 220.015625 175.4375 218.597656 173.8125 217.660156 " fill-opacity="1" fill-rule="nonzero"/><path fill="rgb(57.249451%, 71.759033%, 89.7995%)" d="M 162.179688 224.382812 L 156.445312 221.066406 C 154.824219 220.132812 152.367188 220.027344 150.964844 220.839844 L 144.367188 224.652344 C 142.964844 225.464844 143.136719 226.882812 144.761719 227.820312 L 150.496094 231.136719 C 152.121094 232.070312 154.574219 232.175781 155.980469 231.363281 L 162.574219 227.550781 C 163.980469 226.738281 163.804688 225.320312 162.179688 224.382812 " fill-opacity="1" fill-rule="nonzero"/><path fill="rgb(57.249451%, 71.759033%, 89.7995%)" d="M 150.546875 231.105469 L 144.8125 227.789062 C 143.191406 226.851562 140.734375 226.75 139.332031 227.5625 L 132.734375 231.375 C 131.328125 232.1875 131.507812 233.605469 133.128906 234.542969 L 138.863281 237.859375 C 140.488281 238.796875 142.941406 238.894531 144.34375 238.085938 L 150.941406 234.273438 C 152.347656 233.460938 152.171875 232.042969 150.546875 231.105469 " fill-opacity="1" fill-rule="nonzero"/><path fill="rgb(57.249451%, 71.759033%, 89.7995%)" d="M 138.914062 237.828125 L 133.179688 234.511719 C 131.558594 233.574219 129.101562 233.472656 127.699219 234.285156 L 121.101562 238.097656 C 119.695312 238.910156 119.875 240.328125 121.496094 241.265625 L 127.230469 244.582031 C 128.851562 245.515625 131.308594 245.621094 132.710938 244.808594 L 139.308594 240.996094 C 140.714844 240.183594 140.539062 238.765625 138.914062 237.828125 " fill-opacity="1" fill-rule="nonzero"/><path fill="rgb(57.249451%, 71.759033%, 89.7995%)" d="M 127.28125 244.550781 L 121.546875 241.234375 C 119.925781 240.296875 117.46875 240.195312 116.066406 241.007812 L 109.46875 244.820312 C 108.0625 245.632812 108.238281 247.050781 109.863281 247.988281 L 115.597656 251.300781 C 117.222656 252.242188 119.675781 252.339844 121.078125 251.53125 L 127.675781 247.71875 C 129.082031 246.90625 128.90625 245.488281 127.28125 244.550781 " fill-opacity="1" fill-rule="nonzero"/><path fill="rgb(57.249451%, 71.759033%, 89.7995%)" d="M 115.648438 251.273438 L 109.914062 247.957031 C 108.292969 247.019531 105.835938 246.917969 104.433594 247.730469 L 97.835938 251.542969 C 96.429688 252.355469 96.605469 253.773438 98.230469 254.710938 L 103.964844 258.023438 C 105.585938 258.960938 108.042969 259.066406 109.445312 258.253906 L 116.042969 254.441406 C 117.449219 253.628906 117.273438 252.210938 115.648438 251.273438 " fill-opacity="1" fill-rule="nonzero"/><path fill="rgb(57.249451%, 71.759033%, 89.7995%)" d="M 231.109375 200.023438 L 225.371094 196.710938 C 223.75 195.773438 221.296875 195.671875 219.890625 196.480469 L 213.292969 200.292969 C 211.890625 201.105469 212.066406 202.527344 213.6875 203.460938 L 219.421875 206.777344 C 221.046875 207.714844 223.5 207.816406 224.90625 207.003906 L 231.5 203.191406 C 232.90625 202.382812 232.730469 200.960938 231.109375 200.023438 " fill-opacity="1" fill-rule="nonzero"/><path fill="rgb(57.249451%, 71.759033%, 89.7995%)" d="M 219.566406 206.695312 L 213.828125 203.378906 C 212.207031 202.441406 209.753906 202.339844 208.347656 203.152344 L 201.75 206.964844 C 200.347656 207.777344 200.523438 209.195312 202.144531 210.132812 L 207.878906 213.445312 C 209.503906 214.386719 211.957031 214.488281 213.363281 213.675781 L 219.957031 209.863281 C 221.363281 209.050781 221.1875 207.632812 219.566406 206.695312 " fill-opacity="1" fill-rule="nonzero"/><path fill="rgb(57.249451%, 71.759033%, 89.7995%)" d="M 208.023438 213.367188 L 202.285156 210.050781 C 200.664062 209.113281 198.210938 209.011719 196.804688 209.824219 L 190.207031 213.636719 C 188.800781 214.449219 188.980469 215.867188 190.601562 216.804688 L 196.335938 220.117188 C 197.960938 221.054688 200.414062 221.15625 201.820312 220.347656 L 208.414062 216.535156 C 209.820312 215.722656 209.644531 214.304688 208.023438 213.367188 " fill-opacity="1" fill-rule="nonzero"/><path fill="rgb(57.249451%, 71.759033%, 89.7995%)" d="M 196.476562 220.039062 L 190.742188 216.722656 C 189.121094 215.785156 186.664062 215.683594 185.257812 216.496094 L 178.664062 220.308594 C 177.257812 221.117188 177.433594 222.539062 179.058594 223.476562 L 184.792969 226.789062 C 186.414062 227.726562 188.871094 227.828125 190.277344 227.015625 L 196.871094 223.207031 C 198.277344 222.394531 198.101562 220.972656 196.476562 220.039062 " fill-opacity="1" fill-rule="nonzero"/><path fill="rgb(57.249451%, 71.759033%, 89.7995%)" d="M 184.933594 226.707031 L 179.199219 223.390625 C 177.574219 222.457031 175.121094 222.355469 173.714844 223.167969 L 167.121094 226.976562 C 165.714844 227.789062 165.890625 229.207031 167.511719 230.144531 L 173.25 233.460938 C 174.871094 234.398438 177.328125 234.5 178.730469 233.6875 L 185.328125 229.875 C 186.734375 229.0625 186.558594 227.644531 184.933594 226.707031 " fill-opacity="1" fill-rule="nonzero"/><path fill="rgb(57.249451%, 71.759033%, 89.7995%)" d="M 173.390625 233.378906 L 167.65625 230.0625 C 166.03125 229.128906 163.578125 229.023438 162.171875 229.835938 L 155.578125 233.648438 C 154.171875 234.460938 154.347656 235.878906 155.96875 236.816406 L 161.707031 240.132812 C 163.328125 241.066406 165.78125 241.171875 167.1875 240.359375 L 173.785156 236.546875 C 175.1875 235.734375 175.011719 234.316406 173.390625 233.378906 " fill-opacity="1" fill-rule="nonzero"/><path fill="rgb(57.249451%, 71.759033%, 89.7995%)" d="M 161.847656 240.050781 L 156.109375 236.734375 C 154.488281 235.796875 152.035156 235.695312 150.628906 236.507812 L 144.035156 240.320312 C 142.628906 241.132812 142.804688 242.550781 144.425781 243.488281 L 150.164062 246.800781 C 151.785156 247.738281 154.238281 247.839844 155.644531 247.027344 L 162.242188 243.21875 C 163.644531 242.40625 163.46875 240.988281 161.847656 240.050781 " fill-opacity="1" fill-rule="nonzero"/><path fill="rgb(57.249451%, 71.759033%, 89.7995%)" d="M 150.304688 246.71875 L 144.566406 243.40625 C 142.945312 242.46875 140.492188 242.367188 139.085938 243.179688 L 132.488281 246.988281 C 131.085938 247.800781 131.261719 249.21875 132.882812 250.15625 L 138.621094 253.472656 C 140.242188 254.410156 142.695312 254.511719 144.101562 253.699219 L 150.695312 249.886719 C 152.101562 249.074219 151.925781 247.65625 150.304688 246.71875 " fill-opacity="1" fill-rule="nonzero"/><path fill="rgb(57.249451%, 71.759033%, 89.7995%)" d="M 238.722656 211.097656 L 232.988281 207.78125 C 231.367188 206.84375 228.910156 206.742188 227.507812 207.554688 L 220.910156 211.367188 C 219.503906 212.179688 219.683594 213.597656 221.304688 214.535156 L 227.039062 217.847656 C 228.664062 218.789062 231.117188 218.886719 232.523438 218.078125 L 239.117188 214.265625 C 240.523438 213.453125 240.347656 212.035156 238.722656 211.097656 " fill-opacity="1" fill-rule="nonzero"/><path fill="rgb(57.249451%, 71.759033%, 89.7995%)" d="M 227.179688 217.769531 L 221.445312 214.453125 C 219.824219 213.515625 217.367188 213.414062 215.964844 214.226562 L 209.367188 218.039062 C 207.960938 218.847656 208.136719 220.265625 209.761719 221.203125 L 215.496094 224.519531 C 217.117188 225.457031 219.574219 225.558594 220.976562 224.746094 L 227.574219 220.9375 C 228.980469 220.125 228.804688 218.707031 227.179688 217.769531 " fill-opacity="1" fill-rule="nonzero"/><path fill="rgb(57.249451%, 71.759033%, 89.7995%)" d="M 215.636719 224.441406 L 209.902344 221.125 C 208.277344 220.1875 205.824219 220.085938 204.417969 220.898438 L 197.824219 224.710938 C 196.417969 225.519531 196.59375 226.9375 198.21875 227.875 L 203.953125 231.191406 C 205.574219 232.128906 208.03125 232.230469 209.433594 231.417969 L 216.03125 227.605469 C 217.433594 226.792969 217.257812 225.375 215.636719 224.441406 " fill-opacity="1" fill-rule="nonzero"/><path fill="rgb(57.249451%, 71.759033%, 89.7995%)" d="M 276.671875 204.640625 L 270.9375 201.328125 C 269.3125 200.390625 266.859375 200.285156 265.453125 201.097656 L 258.859375 204.910156 C 257.453125 205.722656 257.628906 207.140625 259.253906 208.078125 L 264.988281 211.394531 C 266.609375 212.332031 269.0625 212.433594 270.46875 211.621094 L 277.066406 207.808594 C 278.46875 206.996094 278.296875 205.578125 276.671875 204.640625 " fill-opacity="1" fill-rule="nonzero"/><path fill="rgb(57.249451%, 71.759033%, 89.7995%)" d="M 265.128906 211.3125 L 259.394531 207.996094 C 257.769531 207.058594 255.316406 206.957031 253.910156 207.769531 L 247.316406 211.582031 C 245.910156 212.394531 246.085938 213.8125 247.707031 214.75 L 253.445312 218.0625 C 255.066406 219 257.519531 219.105469 258.925781 218.292969 L 265.523438 214.480469 C 266.925781 213.667969 266.75 212.25 265.128906 211.3125 " fill-opacity="1" fill-rule="nonzero"/><path fill="rgb(57.249451%, 71.759033%, 89.7995%)" d="M 253.585938 217.984375 L 247.847656 214.667969 C 246.226562 213.730469 243.773438 213.628906 242.367188 214.441406 L 235.773438 218.253906 C 234.367188 219.066406 234.542969 220.480469 236.164062 221.417969 L 241.898438 224.734375 C 243.523438 225.671875 245.976562 225.773438 247.382812 224.960938 L 253.980469 221.148438 C 255.382812 220.335938 255.207031 218.921875 253.585938 217.984375 " fill-opacity="1" fill-rule="nonzero"/><path fill="rgb(57.249451%, 71.759033%, 89.7995%)" d="M 167.957031 267.464844 L 162.222656 264.152344 C 160.597656 263.214844 158.144531 263.109375 156.738281 263.921875 L 150.144531 267.734375 C 148.738281 268.546875 148.914062 269.964844 150.539062 270.902344 L 156.273438 274.21875 C 157.894531 275.15625 160.347656 275.257812 161.753906 274.445312 L 168.351562 270.632812 C 169.753906 269.820312 169.578125 268.402344 167.957031 267.464844 " fill-opacity="1" fill-rule="nonzero"/><path fill="rgb(57.249451%, 71.759033%, 89.7995%)" d="M 156.414062 274.136719 L 150.679688 270.820312 C 149.054688 269.882812 146.601562 269.78125 145.195312 270.59375 L 138.601562 274.40625 C 137.195312 275.21875 137.371094 276.636719 138.996094 277.574219 L 144.730469 280.886719 C 146.351562 281.824219 148.808594 281.925781 150.210938 281.117188 L 156.808594 277.304688 C 158.210938 276.492188 158.035156 275.074219 156.414062 274.136719 " fill-opacity="1" fill-rule="nonzero"/><path fill="rgb(57.249451%, 71.759033%, 89.7995%)" d="M 144.871094 280.808594 L 139.132812 277.492188 C 137.511719 276.554688 135.058594 276.453125 133.652344 277.265625 L 127.058594 281.078125 C 125.652344 281.886719 125.828125 283.308594 127.449219 284.242188 L 133.1875 287.558594 C 134.808594 288.496094 137.261719 288.597656 138.667969 287.785156 L 145.265625 283.972656 C 146.667969 283.164062 146.492188 281.742188 144.871094 280.808594 " fill-opacity="1" fill-rule="nonzero"/><path fill="rgb(57.249451%, 71.759033%, 89.7995%)" d="M 204.09375 231.109375 L 198.359375 227.796875 C 196.734375 226.859375 194.28125 226.753906 192.875 227.566406 L 186.28125 231.378906 C 184.875 232.191406 185.050781 233.609375 186.675781 234.546875 L 192.410156 237.863281 C 194.03125 238.800781 196.488281 238.898438 197.890625 238.089844 L 204.488281 234.277344 C 205.890625 233.464844 205.714844 232.046875 204.09375 231.109375 " fill-opacity="1" fill-rule="nonzero"/><path fill="rgb(57.249451%, 71.759033%, 89.7995%)" d="M 192.550781 237.78125 L 186.8125 234.464844 C 185.191406 233.527344 182.738281 233.425781 181.332031 234.238281 L 174.738281 238.050781 C 173.332031 238.863281 173.507812 240.28125 175.128906 241.21875 L 180.867188 244.53125 C 182.488281 245.46875 184.941406 245.570312 186.347656 244.761719 L 192.945312 240.949219 C 194.347656 240.136719 194.171875 238.71875 192.550781 237.78125 " fill-opacity="1" fill-rule="nonzero"/><path fill="rgb(57.249451%, 71.759033%, 89.7995%)" d="M 181.007812 244.453125 L 175.269531 241.136719 C 173.648438 240.199219 171.195312 240.097656 169.789062 240.910156 L 163.195312 244.722656 C 161.789062 245.535156 161.964844 246.949219 163.585938 247.886719 L 169.324219 251.203125 C 170.945312 252.140625 173.398438 252.242188 174.804688 251.429688 L 181.402344 247.617188 C 182.804688 246.804688 182.628906 245.390625 181.007812 244.453125 " fill-opacity="1" fill-rule="nonzero"/><path fill="rgb(57.249451%, 71.759033%, 89.7995%)" d="M 169.464844 251.121094 L 163.726562 247.808594 C 162.105469 246.871094 159.652344 246.765625 158.246094 247.578125 L 151.648438 251.390625 C 150.246094 252.203125 150.421875 253.621094 152.042969 254.558594 L 157.78125 257.875 C 159.402344 258.8125 161.855469 258.914062 163.261719 258.101562 L 169.859375 254.289062 C 171.261719 253.476562 171.085938 252.058594 169.464844 251.121094 " fill-opacity="1" fill-rule="nonzero"/><path fill="rgb(57.249451%, 71.759033%, 89.7995%)" d="M 157.921875 257.792969 L 152.183594 254.476562 C 150.5625 253.539062 148.109375 253.4375 146.703125 254.25 L 140.105469 258.0625 C 138.703125 258.875 138.878906 260.292969 140.5 261.230469 L 146.238281 264.542969 C 147.859375 265.480469 150.3125 265.585938 151.71875 264.773438 L 158.3125 260.960938 C 159.71875 260.148438 159.542969 258.730469 157.921875 257.792969 " fill-opacity="1" fill-rule="nonzero"/><path fill="rgb(57.249451%, 71.759033%, 89.7995%)" d="M 138.761719 253.390625 L 133.023438 250.078125 C 131.402344 249.140625 128.949219 249.035156 127.542969 249.847656 L 120.945312 253.660156 C 119.542969 254.472656 119.71875 255.890625 121.339844 256.828125 L 127.078125 260.144531 C 128.699219 261.082031 131.152344 261.183594 132.558594 260.371094 L 139.152344 256.558594 C 140.558594 255.746094 140.382812 254.328125 138.761719 253.390625 " fill-opacity="1" fill-rule="nonzero"/><path fill="rgb(57.249451%, 71.759033%, 89.7995%)" d="M 104.707031 257.597656 L 98.972656 254.28125 C 97.347656 253.34375 94.894531 253.242188 93.488281 254.054688 L 86.894531 257.867188 C 85.488281 258.679688 85.664062 260.097656 87.285156 261.035156 L 93.023438 264.347656 C 94.644531 265.285156 97.097656 265.386719 98.503906 264.578125 L 105.101562 260.765625 C 106.503906 259.953125 106.328125 258.535156 104.707031 257.597656 " fill-opacity="1" fill-rule="nonzero"/><path fill="rgb(57.249451%, 71.759033%, 89.7995%)" d="M 249.679688 189.292969 L 243.941406 185.976562 C 242.320312 185.042969 239.867188 184.9375 238.460938 185.753906 L 225.039062 193.507812 C 223.636719 194.320312 223.8125 195.738281 225.433594 196.675781 L 231.171875 199.988281 C 232.792969 200.925781 235.246094 201.027344 236.652344 200.21875 L 250.070312 192.460938 C 251.476562 191.648438 251.300781 190.230469 249.679688 189.292969 " fill-opacity="1" fill-rule="nonzero"/><path fill="rgb(57.249451%, 71.759033%, 89.7995%)" d="M 145.65625 264.882812 L 139.917969 261.566406 C 138.296875 260.628906 135.84375 260.527344 134.4375 261.339844 L 113.667969 273.339844 C 112.265625 274.152344 112.441406 275.570312 114.0625 276.507812 L 119.800781 279.824219 C 121.421875 280.761719 123.875 280.863281 125.28125 280.050781 L 146.046875 268.046875 C 147.453125 267.234375 147.277344 265.820312 145.65625 264.882812 " fill-opacity="1" fill-rule="nonzero"/><path fill="rgb(57.249451%, 71.759033%, 89.7995%)" d="M 241.238281 225.117188 L 235.5 221.804688 C 233.878906 220.867188 231.425781 220.765625 230.019531 221.574219 L 162.734375 260.460938 C 161.328125 261.273438 161.507812 262.691406 163.128906 263.628906 L 168.863281 266.941406 C 170.488281 267.878906 172.941406 267.980469 174.34375 267.167969 L 241.628906 228.285156 C 243.035156 227.476562 242.859375 226.054688 241.238281 225.117188 " fill-opacity="1" fill-rule="nonzero"/><path fill="rgb(57.249451%, 71.759033%, 89.7995%)" d="M 263.066406 197.03125 L 257.328125 193.714844 C 255.707031 192.777344 253.253906 192.675781 251.847656 193.488281 L 234.167969 203.707031 C 232.761719 204.519531 232.9375 205.933594 234.5625 206.871094 L 240.296875 210.1875 C 241.921875 211.125 244.375 211.226562 245.777344 210.414062 L 263.460938 200.199219 C 264.863281 199.386719 264.6875 197.96875 263.066406 197.03125 " fill-opacity="1" fill-rule="nonzero"/><path fill="rgb(57.249451%, 71.759033%, 89.7995%)" d="M 127.140625 260.105469 L 121.402344 256.792969 C 119.78125 255.855469 117.328125 255.753906 115.921875 256.5625 L 100.28125 265.601562 C 98.875 266.414062 99.050781 267.832031 100.675781 268.769531 L 106.410156 272.085938 C 108.035156 273.023438 110.488281 273.125 111.890625 272.3125 L 127.535156 263.273438 C 128.9375 262.460938 128.761719 261.042969 127.140625 260.105469 " fill-opacity="1" fill-rule="nonzero"/><path fill="rgb(76.858521%, 85.879517%, 95.289612%)" d="M 219.214844 270.90625 L 243.175781 257.058594 L 224.160156 246.070312 L 200.199219 259.917969 L 219.214844 270.90625 " fill-opacity="1" fill-rule="nonzero"/><path fill="rgb(76.858521%, 85.879517%, 95.289612%)" d="M 246.066406 255.390625 L 252.78125 251.507812 C 254.75 250.371094 254.503906 248.378906 252.230469 247.066406 L 241.449219 240.839844 C 239.175781 239.523438 235.734375 239.382812 233.765625 240.519531 L 227.046875 244.398438 L 246.066406 255.390625 " fill-opacity="1" fill-rule="nonzero"/><path fill="rgb(76.858521%, 85.879517%, 95.289612%)" d="M 216.324219 272.574219 L 209.609375 276.457031 C 207.640625 277.597656 204.199219 277.453125 201.921875 276.140625 L 191.144531 269.910156 C 188.871094 268.59375 188.621094 266.605469 190.59375 265.46875 L 197.308594 261.585938 L 216.324219 272.574219 " fill-opacity="1" fill-rule="nonzero"/><g clip-path="url(#id3)"><path fill="rgb(76.858521%, 85.879517%, 95.289612%)" d="M 59.992188 251.257812 L 212.832031 158.914062 C 214.296875 158.066406 215.484375 156.015625 215.484375 154.332031 L 218.742188 60.132812 C 218.742188 58.445312 214.296875 56.242188 212.832031 57.089844 L 57.640625 147.023438 C 56.171875 147.867188 54.984375 149.921875 54.984375 151.605469 L 54.984375 247.328125 C 54.984375 249.015625 58.527344 252.105469 59.992188 251.257812 " fill-opacity="1" fill-rule="nonzero"/></g><path fill="rgb(57.249451%, 71.759033%, 89.7995%)" d="M 60.941406 250.914062 L 216.132812 160.980469 C 217.597656 160.136719 218.789062 158.082031 218.789062 156.398438 L 218.789062 60.671875 C 218.789062 58.988281 217.597656 58.3125 216.132812 59.160156 L 60.941406 149.089844 C 59.476562 149.9375 58.289062 151.988281 58.289062 153.671875 L 58.289062 249.398438 C 58.289062 251.082031 59.476562 251.757812 60.941406 250.914062 " fill-opacity="1" fill-rule="nonzero"/><path fill="rgb(98.039246%, 74.508667%, 27.449036%)" d="M 214.140625 152.578125 L 214.140625 69.890625 C 214.140625 67.554688 212.488281 66.613281 210.453125 67.796875 L 66.613281 151.140625 C 64.582031 152.316406 62.9375 155.160156 62.9375 157.492188 L 62.9375 240.179688 C 62.9375 242.515625 64.589844 243.457031 66.628906 242.277344 L 210.464844 158.929688 C 212.496094 157.753906 214.140625 154.910156 214.140625 152.578125 " fill-opacity="1" fill-rule="nonzero"/><path fill="rgb(76.858521%, 85.879517%, 95.289612%)" d="M 216.042969 179.53125 L 222.535156 175.777344 C 223.570312 175.179688 223.441406 174.132812 222.242188 173.4375 L 216.394531 170.058594 C 215.195312 169.367188 213.382812 169.292969 212.34375 169.890625 L 205.851562 173.644531 C 204.8125 174.242188 204.945312 175.292969 206.144531 175.984375 L 211.988281 179.363281 C 213.1875 180.054688 215.003906 180.132812 216.042969 179.53125 " fill-opacity="1" fill-rule="nonzero"/><path fill="rgb(76.858521%, 85.879517%, 95.289612%)" d="M 202.882812 187.136719 L 209.375 183.382812 C 210.414062 182.785156 210.28125 181.734375 209.085938 181.042969 L 203.238281 177.664062 C 202.039062 176.96875 200.222656 176.894531 199.1875 177.496094 L 192.695312 181.246094 C 191.65625 181.847656 191.785156 182.894531 192.984375 183.589844 L 198.832031 186.96875 C 200.03125 187.660156 201.84375 187.734375 202.882812 187.136719 " fill-opacity="1" fill-rule="nonzero"/><path fill="rgb(76.858521%, 85.879517%, 95.289612%)" d="M 189.722656 194.738281 L 196.21875 190.988281 C 197.253906 190.386719 197.125 189.339844 195.925781 188.644531 L 190.078125 185.265625 C 188.878906 184.574219 187.066406 184.5 186.027344 185.097656 L 179.535156 188.851562 C 178.496094 189.453125 178.628906 190.5 179.824219 191.191406 L 185.671875 194.570312 C 186.871094 195.265625 188.6875 195.339844 189.722656 194.738281 " fill-opacity="1" fill-rule="nonzero"/><path fill="rgb(76.858521%, 85.879517%, 95.289612%)" d="M 176.566406 202.34375 L 183.058594 198.589844 C 184.097656 197.992188 183.964844 196.941406 182.765625 196.25 L 176.921875 192.871094 C 175.722656 192.179688 173.90625 192.101562 172.867188 192.703125 L 166.375 196.457031 C 165.335938 197.054688 165.46875 198.105469 166.667969 198.796875 L 172.515625 202.175781 C 173.714844 202.867188 175.527344 202.945312 176.566406 202.34375 " fill-opacity="1" fill-rule="nonzero"/><path fill="rgb(76.858521%, 85.879517%, 95.289612%)" d="M 163.40625 209.949219 L 169.898438 206.195312 C 170.9375 205.59375 170.808594 204.546875 169.609375 203.855469 L 163.761719 200.476562 C 162.5625 199.78125 160.75 199.707031 159.710938 200.308594 L 153.21875 204.058594 C 152.179688 204.660156 152.308594 205.707031 153.507812 206.402344 L 159.355469 209.777344 C 160.554688 210.472656 162.367188 210.546875 163.40625 209.949219 " fill-opacity="1" fill-rule="nonzero"/><path fill="rgb(76.858521%, 85.879517%, 95.289612%)" d="M 150.25 217.550781 L 156.742188 213.800781 C 157.78125 213.199219 157.648438 212.152344 156.449219 211.457031 L 150.605469 208.078125 C 149.40625 207.386719 147.589844 207.3125 146.550781 207.914062 L 140.058594 211.664062 C 139.019531 212.261719 139.152344 213.3125 140.351562 214.003906 L 146.195312 217.382812 C 147.394531 218.078125 149.210938 218.152344 150.25 217.550781 " fill-opacity="1" fill-rule="nonzero"/><path fill="rgb(76.858521%, 85.879517%, 95.289612%)" d="M 137.089844 225.15625 L 143.582031 221.402344 C 144.621094 220.804688 144.492188 219.753906 143.292969 219.0625 L 137.445312 215.683594 C 136.246094 214.992188 134.433594 214.914062 133.394531 215.515625 L 126.902344 219.269531 C 125.863281 219.867188 125.992188 220.914062 127.191406 221.609375 L 133.039062 224.988281 C 134.238281 225.679688 136.050781 225.753906 137.089844 225.15625 " fill-opacity="1" fill-rule="nonzero"/><path fill="rgb(76.858521%, 85.879517%, 95.289612%)" d="M 123.933594 232.761719 L 130.425781 229.007812 C 131.464844 228.40625 131.332031 227.359375 130.132812 226.664062 L 124.285156 223.289062 C 123.085938 222.59375 121.273438 222.519531 120.234375 223.121094 L 113.742188 226.871094 C 112.703125 227.472656 112.835938 228.519531 114.035156 229.214844 L 119.878906 232.59375 C 121.078125 233.285156 122.894531 233.359375 123.933594 232.761719 " fill-opacity="1" fill-rule="nonzero"/><path fill="rgb(76.858521%, 85.879517%, 95.289612%)" d="M 110.773438 240.363281 L 117.265625 236.613281 C 118.304688 236.011719 118.175781 234.964844 116.976562 234.269531 L 111.128906 230.890625 C 109.929688 230.199219 108.117188 230.125 107.078125 230.722656 L 100.585938 234.476562 C 99.546875 235.074219 99.675781 236.125 100.875 236.816406 L 106.722656 240.195312 C 107.921875 240.886719 109.734375 240.964844 110.773438 240.363281 " fill-opacity="1" fill-rule="nonzero"/><path fill="rgb(76.858521%, 85.879517%, 95.289612%)" d="M 97.617188 247.96875 L 104.109375 244.214844 C 105.144531 243.617188 105.015625 242.566406 103.816406 241.875 L 97.96875 238.496094 C 96.769531 237.800781 94.957031 237.726562 93.917969 238.328125 L 87.425781 242.078125 C 86.386719 242.679688 86.519531 243.726562 87.714844 244.421875 L 93.5625 247.800781 C 94.761719 248.492188 96.578125 248.566406 97.617188 247.96875 " fill-opacity="1" fill-rule="nonzero"/><path fill="rgb(76.858521%, 85.879517%, 95.289612%)" d="M 84.457031 255.570312 L 90.949219 251.820312 C 91.988281 251.21875 91.859375 250.171875 90.660156 249.480469 L 84.8125 246.101562 C 83.613281 245.40625 81.796875 245.332031 80.761719 245.933594 L 74.265625 249.683594 C 73.230469 250.285156 73.359375 251.332031 74.558594 252.023438 L 80.40625 255.402344 C 81.605469 256.097656 83.417969 256.171875 84.457031 255.570312 " fill-opacity="1" fill-rule="nonzero"/><path fill="rgb(76.858521%, 85.879517%, 95.289612%)" d="M 225.511719 189.53125 L 235.921875 183.515625 C 236.960938 182.914062 236.828125 181.867188 235.632812 181.175781 L 229.785156 177.796875 C 228.585938 177.101562 226.769531 177.027344 225.730469 177.628906 L 215.320312 183.644531 C 214.28125 184.242188 214.414062 185.292969 215.613281 185.984375 L 221.457031 189.363281 C 222.65625 190.058594 224.472656 190.132812 225.511719 189.53125 " fill-opacity="1" fill-rule="nonzero"/><path fill="rgb(76.858521%, 85.879517%, 95.289612%)" d="M 213.484375 196.480469 L 219.976562 192.730469 C 221.015625 192.132812 220.882812 191.082031 219.6875 190.390625 L 213.839844 187.011719 C 212.640625 186.316406 210.824219 186.242188 209.785156 186.84375 L 203.292969 190.59375 C 202.257812 191.195312 202.386719 192.242188 203.585938 192.933594 L 209.433594 196.316406 C 210.632812 197.007812 212.445312 197.082031 213.484375 196.480469 " fill-opacity="1" fill-rule="nonzero"/><path fill="rgb(76.858521%, 85.879517%, 95.289612%)" d="M 201.851562 203.207031 L 208.34375 199.453125 C 209.382812 198.851562 209.25 197.804688 208.050781 197.113281 L 202.203125 193.734375 C 201.007812 193.039062 199.191406 192.964844 198.152344 193.566406 L 191.660156 197.316406 C 190.621094 197.917969 190.753906 198.964844 191.953125 199.660156 L 197.800781 203.035156 C 198.996094 203.730469 200.8125 203.804688 201.851562 203.207031 " fill-opacity="1" fill-rule="nonzero"/><path fill="rgb(76.858521%, 85.879517%, 95.289612%)" d="M 190.21875 209.925781 L 196.710938 206.175781 C 197.75 205.578125 197.617188 204.527344 196.417969 203.835938 L 190.574219 200.457031 C 189.375 199.761719 187.558594 199.6875 186.519531 200.289062 L 180.027344 204.039062 C 178.992188 204.640625 179.121094 205.6875 180.320312 206.378906 L 186.167969 209.761719 C 187.367188 210.453125 189.179688 210.527344 190.21875 209.925781 " fill-opacity="1" fill-rule="nonzero"/><path fill="rgb(76.858521%, 85.879517%, 95.289612%)" d="M 178.585938 216.652344 L 185.078125 212.898438 C 186.117188 212.296875 185.984375 211.25 184.789062 210.554688 L 178.941406 207.179688 C 177.742188 206.484375 175.925781 206.410156 174.886719 207.007812 L 168.394531 210.761719 C 167.355469 211.363281 167.488281 212.410156 168.6875 213.105469 L 174.53125 216.480469 C 175.730469 217.175781 177.546875 217.25 178.585938 216.652344 " fill-opacity="1" fill-rule="nonzero"/><path fill="rgb(76.858521%, 85.879517%, 95.289612%)" d="M 166.953125 223.371094 L 173.445312 219.621094 C 174.484375 219.019531 174.351562 217.972656 173.152344 217.28125 L 167.308594 213.902344 C 166.109375 213.207031 164.292969 213.132812 163.253906 213.734375 L 156.761719 217.484375 C 155.722656 218.085938 155.855469 219.132812 157.054688 219.824219 L 162.898438 223.203125 C 164.101562 223.898438 165.914062 223.972656 166.953125 223.371094 " fill-opacity="1" fill-rule="nonzero"/><path fill="rgb(76.858521%, 85.879517%, 95.289612%)" d="M 155.320312 230.097656 L 161.8125 226.34375 C 162.851562 225.742188 162.71875 224.695312 161.519531 224 L 155.675781 220.625 C 154.476562 219.929688 152.660156 219.855469 151.621094 220.453125 L 145.128906 224.207031 C 144.089844 224.808594 144.222656 225.855469 145.421875 226.546875 L 151.269531 229.925781 C 152.46875 230.621094 154.28125 230.695312 155.320312 230.097656 " fill-opacity="1" fill-rule="nonzero"/><path fill="rgb(76.858521%, 85.879517%, 95.289612%)" d="M 143.6875 236.816406 L 150.179688 233.066406 C 151.21875 232.464844 151.085938 231.417969 149.886719 230.726562 L 144.042969 227.34375 C 142.84375 226.652344 141.027344 226.578125 139.988281 227.179688 L 133.496094 230.929688 C 132.457031 231.527344 132.589844 232.578125 133.789062 233.269531 L 139.632812 236.648438 C 140.832031 237.34375 142.648438 237.417969 143.6875 236.816406 " fill-opacity="1" fill-rule="nonzero"/><path fill="rgb(76.858521%, 85.879517%, 95.289612%)" d="M 132.054688 243.539062 L 138.546875 239.789062 C 139.585938 239.1875 139.453125 238.140625 138.253906 237.445312 L 132.410156 234.066406 C 131.210938 233.375 129.394531 233.300781 128.355469 233.898438 L 121.863281 237.652344 C 120.828125 238.253906 120.957031 239.300781 122.15625 239.992188 L 128.003906 243.371094 C 129.203125 244.066406 131.015625 244.140625 132.054688 243.539062 " fill-opacity="1" fill-rule="nonzero"/><path fill="rgb(76.858521%, 85.879517%, 95.289612%)" d="M 120.421875 250.261719 L 126.914062 246.511719 C 127.953125 245.910156 127.820312 244.863281 126.621094 244.167969 L 120.777344 240.789062 C 119.578125 240.097656 117.761719 240.023438 116.722656 240.621094 L 110.230469 244.375 C 109.191406 244.972656 109.324219 246.023438 110.523438 246.714844 L 116.371094 250.09375 C 117.570312 250.785156 119.382812 250.863281 120.421875 250.261719 " fill-opacity="1" fill-rule="nonzero"/><path fill="rgb(76.858521%, 85.879517%, 95.289612%)" d="M 108.789062 256.984375 L 115.28125 253.234375 C 116.320312 252.632812 116.1875 251.585938 114.988281 250.890625 L 109.144531 247.511719 C 107.945312 246.820312 106.128906 246.746094 105.089844 247.34375 L 98.597656 251.097656 C 97.558594 251.699219 97.691406 252.746094 98.890625 253.4375 L 104.738281 256.816406 C 105.933594 257.511719 107.75 257.585938 108.789062 256.984375 " fill-opacity="1" fill-rule="nonzero"/><path fill="rgb(76.858521%, 85.879517%, 95.289612%)" d="M 224.246094 205.738281 L 230.738281 201.984375 C 231.777344 201.382812 231.648438 200.335938 230.449219 199.644531 L 224.601562 196.265625 C 223.402344 195.570312 221.585938 195.496094 220.550781 196.097656 L 214.054688 199.847656 C 213.019531 200.449219 213.148438 201.496094 214.347656 202.191406 L 220.195312 205.570312 C 221.394531 206.261719 223.207031 206.335938 224.246094 205.738281 " fill-opacity="1" fill-rule="nonzero"/><path fill="rgb(76.858521%, 85.879517%, 95.289612%)" d="M 212.703125 212.40625 L 219.195312 208.65625 C 220.234375 208.054688 220.101562 207.007812 218.90625 206.316406 L 213.058594 202.9375 C 211.859375 202.242188 210.042969 202.167969 209.007812 202.765625 L 202.511719 206.519531 C 201.476562 207.121094 201.605469 208.167969 202.804688 208.859375 L 208.652344 212.238281 C 209.851562 212.933594 211.664062 213.007812 212.703125 212.40625 " fill-opacity="1" fill-rule="nonzero"/><path fill="rgb(76.858521%, 85.879517%, 95.289612%)" d="M 201.160156 219.078125 L 207.652344 215.328125 C 208.691406 214.726562 208.558594 213.675781 207.359375 212.984375 L 201.515625 209.605469 C 200.316406 208.914062 198.5 208.835938 197.464844 209.4375 L 190.96875 213.191406 C 189.933594 213.789062 190.0625 214.839844 191.261719 215.53125 L 197.109375 218.910156 C 198.308594 219.601562 200.121094 219.679688 201.160156 219.078125 " fill-opacity="1" fill-rule="nonzero"/><path fill="rgb(76.858521%, 85.879517%, 95.289612%)" d="M 189.617188 225.75 L 196.109375 221.996094 C 197.148438 221.398438 197.015625 220.347656 195.816406 219.65625 L 189.972656 216.277344 C 188.773438 215.582031 186.957031 215.507812 185.917969 216.109375 L 179.425781 219.859375 C 178.386719 220.460938 178.519531 221.507812 179.71875 222.203125 L 185.566406 225.582031 C 186.765625 226.273438 188.578125 226.351562 189.617188 225.75 " fill-opacity="1" fill-rule="nonzero"/><path fill="rgb(76.858521%, 85.879517%, 95.289612%)" d="M 178.074219 232.417969 L 184.566406 228.667969 C 185.605469 228.066406 185.472656 227.019531 184.273438 226.328125 L 178.425781 222.949219 C 177.226562 222.253906 175.414062 222.179688 174.375 222.78125 L 167.882812 226.53125 C 166.84375 227.132812 166.976562 228.179688 168.175781 228.871094 L 174.019531 232.253906 C 175.21875 232.945312 177.035156 233.019531 178.074219 232.417969 " fill-opacity="1" fill-rule="nonzero"/><path fill="rgb(76.858521%, 85.879517%, 95.289612%)" d="M 166.53125 239.089844 L 173.023438 235.339844 C 174.058594 234.738281 173.929688 233.691406 172.730469 232.996094 L 166.882812 229.617188 C 165.683594 228.925781 163.871094 228.851562 162.832031 229.449219 L 156.339844 233.203125 C 155.300781 233.804688 155.433594 234.851562 156.632812 235.542969 L 162.476562 238.921875 C 163.675781 239.617188 165.492188 239.691406 166.53125 239.089844 " fill-opacity="1" fill-rule="nonzero"/><path fill="rgb(76.858521%, 85.879517%, 95.289612%)" d="M 154.984375 245.761719 L 161.480469 242.007812 C 162.515625 241.410156 162.386719 240.359375 161.1875 239.667969 L 155.339844 236.289062 C 154.140625 235.597656 152.328125 235.523438 151.289062 236.121094 L 144.796875 239.875 C 143.757812 240.472656 143.886719 241.523438 145.085938 242.214844 L 150.933594 245.59375 C 152.132812 246.285156 153.945312 246.363281 154.984375 245.761719 " fill-opacity="1" fill-rule="nonzero"/><path fill="rgb(76.858521%, 85.879517%, 95.289612%)" d="M 143.441406 252.433594 L 149.933594 248.679688 C 150.972656 248.082031 150.84375 247.03125 149.644531 246.339844 L 143.796875 242.960938 C 142.597656 242.265625 140.785156 242.191406 139.746094 242.792969 L 133.253906 246.542969 C 132.214844 247.144531 132.34375 248.191406 133.542969 248.886719 L 139.390625 252.265625 C 140.589844 252.957031 142.402344 253.03125 143.441406 252.433594 " fill-opacity="1" fill-rule="nonzero"/><path fill="rgb(76.858521%, 85.879517%, 95.289612%)" d="M 231.863281 216.808594 L 238.355469 213.058594 C 239.394531 212.457031 239.265625 211.410156 238.066406 210.714844 L 232.214844 207.335938 C 231.015625 206.644531 229.203125 206.570312 228.164062 207.167969 L 221.671875 210.921875 C 220.632812 211.519531 220.765625 212.570312 221.964844 213.261719 L 227.8125 216.640625 C 229.007812 217.332031 230.824219 217.410156 231.863281 216.808594 " fill-opacity="1" fill-rule="nonzero"/><path fill="rgb(76.858521%, 85.879517%, 95.289612%)" d="M 220.320312 223.480469 L 226.8125 219.726562 C 227.851562 219.128906 227.71875 218.078125 226.519531 217.386719 L 220.671875 214.007812 C 219.472656 213.316406 217.660156 213.238281 216.621094 213.839844 L 210.128906 217.59375 C 209.089844 218.191406 209.222656 219.238281 210.421875 219.933594 L 216.265625 223.3125 C 217.464844 224.003906 219.28125 224.078125 220.320312 223.480469 " fill-opacity="1" fill-rule="nonzero"/><path fill="rgb(76.858521%, 85.879517%, 95.289612%)" d="M 208.773438 230.152344 L 215.269531 226.398438 C 216.304688 225.796875 216.175781 224.75 214.976562 224.058594 L 209.128906 220.679688 C 207.929688 219.984375 206.117188 219.910156 205.078125 220.511719 L 198.585938 224.261719 C 197.546875 224.863281 197.679688 225.910156 198.875 226.605469 L 204.722656 229.984375 C 205.921875 230.675781 207.738281 230.75 208.773438 230.152344 " fill-opacity="1" fill-rule="nonzero"/><path fill="rgb(76.858521%, 85.879517%, 95.289612%)" d="M 269.8125 210.355469 L 276.304688 206.601562 C 277.339844 206 277.210938 204.953125 276.011719 204.261719 L 270.164062 200.882812 C 268.964844 200.1875 267.152344 200.113281 266.113281 200.714844 L 259.621094 204.464844 C 258.582031 205.066406 258.714844 206.113281 259.910156 206.804688 L 265.757812 210.183594 C 266.957031 210.878906 268.769531 210.953125 269.8125 210.355469 " fill-opacity="1" fill-rule="nonzero"/><path fill="rgb(76.858521%, 85.879517%, 95.289612%)" d="M 258.265625 217.023438 L 264.757812 213.273438 C 265.796875 212.671875 265.667969 211.625 264.46875 210.929688 L 258.621094 207.550781 C 257.421875 206.859375 255.609375 206.785156 254.570312 207.382812 L 248.074219 211.136719 C 247.039062 211.734375 247.167969 212.785156 248.367188 213.476562 L 254.214844 216.855469 C 255.414062 217.550781 257.226562 217.625 258.265625 217.023438 " fill-opacity="1" fill-rule="nonzero"/><path fill="rgb(76.858521%, 85.879517%, 95.289612%)" d="M 246.722656 223.695312 L 253.214844 219.941406 C 254.253906 219.34375 254.121094 218.292969 252.925781 217.601562 L 247.078125 214.222656 C 245.878906 213.53125 244.066406 213.453125 243.027344 214.054688 L 236.535156 217.808594 C 235.496094 218.40625 235.625 219.457031 236.824219 220.148438 L 242.671875 223.527344 C 243.871094 224.21875 245.683594 224.296875 246.722656 223.695312 " fill-opacity="1" fill-rule="nonzero"/><path fill="rgb(76.858521%, 85.879517%, 95.289612%)" d="M 161.097656 273.179688 L 167.589844 269.425781 C 168.625 268.824219 168.496094 267.777344 167.296875 267.085938 L 161.449219 263.707031 C 160.25 263.011719 158.4375 262.9375 157.398438 263.535156 L 150.90625 267.289062 C 149.867188 267.890625 150 268.9375 151.199219 269.628906 L 157.042969 273.007812 C 158.242188 273.703125 160.058594 273.777344 161.097656 273.179688 " fill-opacity="1" fill-rule="nonzero"/><path fill="rgb(76.858521%, 85.879517%, 95.289612%)" d="M 149.554688 279.847656 L 156.046875 276.097656 C 157.082031 275.496094 156.953125 274.449219 155.753906 273.753906 L 149.90625 270.375 C 148.707031 269.683594 146.894531 269.609375 145.855469 270.207031 L 139.363281 273.960938 C 138.324219 274.558594 138.453125 275.609375 139.65625 276.300781 L 145.5 279.679688 C 146.699219 280.375 148.515625 280.449219 149.554688 279.847656 " fill-opacity="1" fill-rule="nonzero"/><path fill="rgb(76.858521%, 85.879517%, 95.289612%)" d="M 138.007812 286.519531 L 144.5 282.765625 C 145.539062 282.167969 145.410156 281.117188 144.210938 280.425781 L 138.363281 277.046875 C 137.164062 276.355469 135.351562 276.277344 134.3125 276.878906 L 127.820312 280.632812 C 126.78125 281.230469 126.910156 282.277344 128.109375 282.972656 L 133.957031 286.351562 C 135.15625 287.042969 136.972656 287.117188 138.007812 286.519531 " fill-opacity="1" fill-rule="nonzero"/><path fill="rgb(76.858521%, 85.879517%, 95.289612%)" d="M 197.230469 236.820312 L 203.726562 233.070312 C 204.761719 232.46875 204.632812 231.421875 203.433594 230.726562 L 197.585938 227.347656 C 196.386719 226.65625 194.574219 226.582031 193.535156 227.179688 L 187.042969 230.933594 C 186.003906 231.535156 186.132812 232.582031 187.332031 233.273438 L 193.179688 236.652344 C 194.378906 237.347656 196.195312 237.421875 197.230469 236.820312 " fill-opacity="1" fill-rule="nonzero"/><path fill="rgb(76.858521%, 85.879517%, 95.289612%)" d="M 185.6875 243.492188 L 192.179688 239.738281 C 193.21875 239.140625 193.089844 238.09375 191.890625 237.398438 L 186.042969 234.019531 C 184.84375 233.328125 183.03125 233.25 181.992188 233.851562 L 175.5 237.605469 C 174.460938 238.203125 174.589844 239.25 175.789062 239.945312 L 181.636719 243.324219 C 182.835938 244.015625 184.648438 244.089844 185.6875 243.492188 " fill-opacity="1" fill-rule="nonzero"/><path fill="rgb(76.858521%, 85.879517%, 95.289612%)" d="M 174.144531 250.164062 L 180.636719 246.410156 C 181.675781 245.8125 181.546875 244.761719 180.347656 244.070312 L 174.5 240.691406 C 173.300781 240 171.488281 239.921875 170.449219 240.523438 L 163.957031 244.273438 C 162.917969 244.875 163.046875 245.921875 164.246094 246.617188 L 170.09375 249.996094 C 171.292969 250.6875 173.105469 250.761719 174.144531 250.164062 " fill-opacity="1" fill-rule="nonzero"/><path fill="rgb(76.858521%, 85.879517%, 95.289612%)" d="M 162.601562 256.832031 L 169.09375 253.082031 C 170.132812 252.480469 170.003906 251.433594 168.804688 250.742188 L 162.957031 247.363281 C 161.757812 246.667969 159.945312 246.59375 158.90625 247.191406 L 152.414062 250.945312 C 151.375 251.546875 151.503906 252.59375 152.703125 253.285156 L 158.550781 256.664062 C 159.75 257.359375 161.5625 257.433594 162.601562 256.832031 " fill-opacity="1" fill-rule="nonzero"/><path fill="rgb(76.858521%, 85.879517%, 95.289612%)" d="M 151.058594 263.503906 L 157.550781 259.753906 C 158.589844 259.152344 158.460938 258.105469 157.261719 257.410156 L 151.414062 254.03125 C 150.214844 253.339844 148.402344 253.265625 147.363281 253.863281 L 140.871094 257.617188 C 139.832031 258.214844 139.960938 259.265625 141.160156 259.957031 L 147.007812 263.335938 C 148.207031 264.027344 150.019531 264.105469 151.058594 263.503906 " fill-opacity="1" fill-rule="nonzero"/><path fill="rgb(76.858521%, 85.879517%, 95.289612%)" d="M 131.898438 259.105469 L 138.390625 255.351562 C 139.429688 254.75 139.300781 253.703125 138.101562 253.007812 L 132.253906 249.632812 C 131.054688 248.9375 129.242188 248.863281 128.203125 249.460938 L 121.710938 253.214844 C 120.671875 253.816406 120.800781 254.863281 122 255.558594 L 127.847656 258.933594 C 129.046875 259.628906 130.859375 259.703125 131.898438 259.105469 " fill-opacity="1" fill-rule="nonzero"/><path fill="rgb(76.858521%, 85.879517%, 95.289612%)" d="M 97.84375 263.308594 L 104.335938 259.554688 C 105.375 258.957031 105.246094 257.910156 104.046875 257.214844 L 98.199219 253.835938 C 97 253.144531 95.1875 253.070312 94.148438 253.667969 L 87.65625 257.417969 C 86.617188 258.019531 86.746094 259.070312 87.945312 259.761719 L 93.792969 263.140625 C 94.992188 263.832031 96.804688 263.910156 97.84375 263.308594 " fill-opacity="1" fill-rule="nonzero"/><path fill="rgb(76.858521%, 85.879517%, 95.289612%)" d="M 235.992188 198.949219 L 249.308594 191.253906 C 250.347656 190.652344 250.21875 189.605469 249.015625 188.914062 L 243.171875 185.535156 C 241.972656 184.839844 240.15625 184.765625 239.121094 185.363281 L 225.804688 193.0625 C 224.765625 193.660156 224.894531 194.707031 226.09375 195.402344 L 231.941406 198.78125 C 233.140625 199.472656 234.953125 199.550781 235.992188 198.949219 " fill-opacity="1" fill-rule="nonzero"/><path fill="rgb(76.858521%, 85.879517%, 95.289612%)" d="M 124.621094 278.78125 L 145.285156 266.839844 C 146.324219 266.242188 146.195312 265.191406 144.996094 264.5 L 139.148438 261.121094 C 137.949219 260.429688 136.136719 260.351562 135.097656 260.953125 L 114.433594 272.894531 C 113.394531 273.496094 113.523438 274.542969 114.722656 275.234375 L 120.570312 278.613281 C 121.769531 279.308594 123.582031 279.382812 124.621094 278.78125 " fill-opacity="1" fill-rule="nonzero"/><path fill="rgb(76.858521%, 85.879517%, 95.289612%)" d="M 173.6875 265.902344 L 240.871094 227.078125 C 241.90625 226.476562 241.777344 225.429688 240.578125 224.738281 L 234.730469 221.355469 C 233.53125 220.664062 231.71875 220.589844 230.679688 221.191406 L 163.496094 260.011719 C 162.460938 260.613281 162.589844 261.660156 163.789062 262.355469 L 169.632812 265.734375 C 170.835938 266.425781 172.648438 266.5 173.6875 265.902344 " fill-opacity="1" fill-rule="nonzero"/><path fill="rgb(76.858521%, 85.879517%, 95.289612%)" d="M 245.121094 209.148438 L 262.699219 198.992188 C 263.738281 198.390625 263.605469 197.339844 262.40625 196.648438 L 256.5625 193.269531 C 255.363281 192.578125 253.546875 192.5 252.507812 193.101562 L 234.933594 203.257812 C 233.894531 203.859375 234.023438 204.90625 235.222656 205.601562 L 241.070312 208.976562 C 242.269531 209.671875 244.082031 209.746094 245.121094 209.148438 " fill-opacity="1" fill-rule="nonzero"/><path fill="rgb(76.858521%, 85.879517%, 95.289612%)" d="M 111.234375 271.046875 L 126.769531 262.066406 C 127.808594 261.464844 127.679688 260.417969 126.480469 259.722656 L 120.632812 256.347656 C 119.433594 255.652344 117.621094 255.578125 116.582031 256.179688 L 101.042969 265.15625 C 100.003906 265.757812 100.136719 266.804688 101.335938 267.5 L 107.183594 270.875 C 108.382812 271.570312 110.195312 271.644531 111.234375 271.046875 " fill-opacity="1" fill-rule="nonzero"/><path fill="rgb(100%, 100%, 100%)" d="M 190.113281 159.121094 L 94.8125 214.191406 L 94.8125 185.253906 L 190.113281 130.183594 L 190.113281 159.121094 " fill-opacity="1" fill-rule="nonzero"/><path fill="rgb(100%, 100%, 100%)" d="M 190.109375 119.496094 L 94.8125 174.570312 L 94.8125 145.632812 L 190.109375 90.5625 L 190.109375 119.496094 " fill-opacity="1" fill-rule="nonzero"/><path fill="rgb(19.219971%, 54.508972%, 50.588989%)" d="M 104.082031 196.78125 C 103.214844 196.285156 101.804688 197.097656 100.9375 198.597656 C 100.070312 200.09375 100.070312 201.710938 100.9375 202.207031 C 101.804688 202.703125 103.214844 201.886719 104.082031 200.390625 C 104.949219 198.894531 104.949219 197.277344 104.082031 196.78125 Z M 114.324219 187.15625 L 113.3125 188.902344 L 110.878906 187.515625 L 106.839844 194.492188 C 107.753906 196.050781 107.453125 198.832031 105.9375 201.449219 C 104.042969 204.71875 100.976562 206.492188 99.082031 205.410156 C 97.191406 204.332031 97.191406 200.804688 99.082031 197.539062 C 100.597656 194.921875 102.871094 193.261719 104.6875 193.261719 L 112.550781 179.6875 L 114.703125 180.917969 L 113.691406 182.660156 L 116.125 184.046875 L 115.113281 185.792969 L 113.710938 184.996094 L 112.921875 186.355469 L 114.324219 187.15625 " fill-opacity="1" fill-rule="nonzero"/><path fill="rgb(19.219971%, 54.508972%, 50.588989%)" d="M 107.195312 157.347656 C 106.566406 157.710938 105.953125 157.832031 105.382812 157.765625 L 106.894531 156.414062 L 108.8125 155.914062 C 108.292969 156.53125 107.746094 157.027344 107.195312 157.347656 " fill-opacity="1" fill-rule="nonzero"/><path fill="rgb(19.219971%, 54.508972%, 50.588989%)" d="M 113.484375 154.6875 L 113.484375 159.097656 L 100.304688 166.714844 L 100.304688 162.304688 L 102.890625 159.992188 C 104.101562 160.667969 105.585938 160.699219 107.195312 159.773438 C 108.765625 158.863281 110.21875 157.203125 111.417969 155.230469 L 113.484375 154.6875 " fill-opacity="1" fill-rule="nonzero"/><path fill="rgb(19.219971%, 54.508972%, 50.588989%)" d="M 112.574219 146.160156 C 112.574219 148.984375 110.902344 153.429688 108.8125 155.914062 C 108.292969 156.53125 107.746094 157.027344 107.195312 157.347656 C 106.566406 157.710938 105.953125 157.832031 105.382812 157.765625 C 103.421875 157.535156 101.9375 155.0625 101.9375 152.304688 C 101.9375 148.9375 104.324219 144.820312 107.257812 143.125 C 110.1875 141.429688 112.574219 142.792969 112.574219 146.160156 " fill-opacity="1" fill-rule="nonzero"/><path fill="rgb(97.648621%, 69.018555%, 67.83905%)" d="M 219.714844 59.976562 C 219.714844 59.976562 217.644531 61.304688 217.644531 61.824219 C 217.644531 62.347656 217.765625 62.570312 218.660156 62.507812 C 219.550781 62.449219 219.503906 62.382812 220.074219 61.769531 C 220.644531 61.15625 221.105469 61.222656 221.058594 60.457031 C 221.011719 59.691406 220.949219 59.65625 220.46875 59.699219 C 219.984375 59.742188 219.714844 59.976562 219.714844 59.976562 " fill-opacity="1" fill-rule="nonzero"/><path fill="rgb(97.648621%, 69.018555%, 67.83905%)" d="M 220.199219 58.296875 C 220.449219 58.691406 220.414062 59.351562 220.324219 59.664062 C 220.238281 59.976562 219.277344 60.761719 219.277344 60.761719 C 219.277344 60.761719 217.417969 61.765625 217.175781 61.394531 C 216.9375 61.023438 216.847656 60.738281 217.527344 60.402344 C 218.207031 60.066406 218.695312 59.867188 218.695312 59.867188 C 218.695312 59.867188 219.21875 58.410156 219.539062 58.261719 C 219.859375 58.113281 220.199219 58.296875 220.199219 58.296875 " fill-opacity="1" fill-rule="nonzero"/><path fill="rgb(97.648621%, 69.018555%, 67.83905%)" d="M 218.832031 56.859375 C 218.832031 56.859375 219.484375 57.207031 219.625 57.6875 C 219.769531 58.164062 219.28125 59.484375 218.851562 59.691406 C 218.421875 59.898438 216.941406 60.34375 216.851562 60.136719 C 216.761719 59.929688 216.574219 59.207031 217.285156 58.988281 C 218 58.773438 218.328125 58.207031 218.328125 58.207031 C 218.328125 58.207031 218.886719 57.648438 218.886719 57.386719 C 218.886719 57.128906 218.832031 56.859375 218.832031 56.859375 " fill-opacity="1" fill-rule="nonzero"/><g clip-path="url(#id4)"><path fill="rgb(97.648621%, 69.018555%, 67.83905%)" d="M 215.972656 56.445312 L 216.886719 55.753906 C 216.886719 55.753906 218.164062 55.679688 218.417969 55.992188 C 218.664062 56.308594 218.859375 57.292969 218.886719 57.386719 C 218.914062 57.484375 217.578125 59.007812 217.1875 58.65625 C 216.792969 58.304688 216.949219 58.128906 217.171875 57.828125 C 217.394531 57.527344 217.636719 57.117188 217.636719 57.117188 L 217.453125 56.335938 L 216.601562 56.621094 L 215.972656 56.445312 " fill-opacity="1" fill-rule="nonzero"/></g><path fill="rgb(97.648621%, 69.018555%, 67.83905%)" d="M 219.949219 109.71875 C 219.949219 109.71875 218.851562 109.300781 218.332031 109.457031 C 217.808594 109.613281 216.394531 109.40625 216.339844 110.292969 C 216.289062 111.179688 215.929688 111.179688 216.820312 111.078125 C 217.707031 110.972656 217.808594 111.128906 218.539062 111.179688 C 219.269531 111.234375 219.898438 112.121094 219.949219 109.71875 " fill-opacity="1" fill-rule="nonzero"/><path fill="rgb(97.648621%, 69.018555%, 67.83905%)" d="M 216.085938 112.171875 C 216.144531 112.230469 216.496094 111.910156 217.027344 111.859375 C 218.175781 111.757812 218.488281 112.070312 219.167969 111.964844 C 219.84375 111.859375 220.054688 111.808594 220.054688 112.382812 C 220.054688 112.957031 220.421875 113.6875 219.375 113.6875 C 218.332031 113.6875 217.964844 113.269531 217.652344 113.324219 C 217.339844 113.375 215.671875 113.480469 216.085938 112.171875 " fill-opacity="1" fill-rule="nonzero"/><path fill="rgb(97.648621%, 69.018555%, 67.83905%)" d="M 217.027344 114.417969 C 217.027344 114.417969 216.714844 115.570312 217.339844 115.515625 C 217.96875 115.464844 218.332031 115.359375 218.75 115.410156 C 219.167969 115.464844 219.324219 115.933594 219.792969 115.726562 C 220.265625 115.515625 220.421875 114.886719 219.949219 114.523438 C 219.480469 114.15625 218.070312 113.898438 217.027344 114.417969 " fill-opacity="1" fill-rule="nonzero"/><path fill="rgb(97.648621%, 69.018555%, 67.83905%)" d="M 217.289062 116.144531 C 217.289062 116.144531 217.082031 116.875 217.601562 116.980469 C 218.121094 117.085938 219.167969 117.554688 219.375 117.34375 C 219.585938 117.136719 220.261719 116.5625 219.585938 116.300781 C 218.90625 116.039062 217.601562 115.515625 217.289062 116.144531 " fill-opacity="1" fill-rule="nonzero"/><path fill="rgb(27.449036%, 10.5896%, 10.5896%)" d="M 214.488281 290.761719 L 213.503906 289.285156 C 213.503906 289.285156 212.027344 291.820312 213.996094 293.648438 C 215.964844 295.480469 218.570312 296.183594 219.976562 296.535156 C 221.382812 296.886719 223 297.820312 223 297.820312 L 223 299.417969 C 223 299.417969 226.445312 302.308594 228.625 301.882812 C 230.804688 301.460938 231.929688 299.703125 231.929688 299.703125 L 232.351562 297.449219 L 225.671875 294.984375 L 214.488281 290.761719 " fill-opacity="1" fill-rule="nonzero"/><path fill="rgb(19.219971%, 54.508972%, 50.588989%)" d="M 223.121094 289.171875 C 223.121094 289.171875 221.085938 290.648438 218.960938 289.285156 C 218.175781 288.78125 214.488281 288.230469 213.503906 289.285156 C 212.519531 290.339844 213.996094 293.4375 218.359375 294.847656 C 222.71875 296.253906 222.296875 296.746094 223.914062 297.660156 C 225.53125 298.574219 228.484375 299.703125 229.820312 299.351562 C 231.15625 299 232.351562 297.449219 232.351562 297.449219 C 232.351562 297.449219 232 295.769531 231.929688 294.039062 C 231.859375 292.3125 231.859375 292.3125 231.859375 292.3125 C 231.859375 292.3125 229.679688 293.15625 227.007812 292.734375 C 224.332031 292.3125 223.121094 289.171875 223.121094 289.171875 " fill-opacity="1" fill-rule="nonzero"/><path fill="rgb(21.958923%, 35.688782%, 69.799805%)" d="M 234.144531 240.300781 C 233.441406 242.972656 233.300781 244.621094 233.300781 244.9375 C 233.300781 245.253906 231.71875 268.484375 232.351562 270.175781 C 232.984375 271.863281 233.828125 273.023438 233.828125 277.355469 C 233.828125 281.683594 232.351562 294.773438 232.351562 294.773438 C 232.351562 294.773438 226.777344 294.6875 223.488281 292.242188 C 220.203125 289.792969 221.589844 289.792969 221.589844 289.792969 C 221.589844 289.792969 224.019531 283.898438 223.28125 281.683594 C 222.542969 279.464844 222.542969 277.035156 222.542969 273.65625 C 222.542969 270.277344 222.542969 270.277344 222.542969 270.277344 C 222.542969 270.277344 221.589844 269.585938 220.113281 262.4375 C 218.640625 255.285156 218.539062 230.941406 218.855469 230.097656 C 219.171875 229.253906 231.929688 224.773438 231.929688 224.773438 C 231.929688 224.773438 235.832031 233.878906 234.144531 240.300781 " fill-opacity="1" fill-rule="nonzero"/><path fill="rgb(27.449036%, 10.5896%, 10.5896%)" d="M 205.804688 297.167969 L 204.34375 296.613281 C 204.34375 296.613281 203.519531 299.488281 204.34375 300.757812 C 205.171875 302.023438 210.269531 304.242188 211.710938 304.734375 C 213.152344 305.226562 213.152344 305.226562 213.152344 305.226562 L 213.210938 306.355469 C 213.210938 306.355469 214.875 307.902344 218.144531 308.113281 C 221.417969 308.324219 221.945312 305.542969 221.945312 305.542969 L 221.609375 302.617188 L 211.957031 301.671875 L 205.804688 297.167969 " fill-opacity="1" fill-rule="nonzero"/><path fill="rgb(19.219971%, 54.508972%, 50.588989%)" d="M 220.726562 300.253906 C 220.726562 300.253906 221.453125 300.597656 221.554688 301.925781 C 221.664062 303.257812 221.664062 303.785156 221.664062 303.785156 C 221.664062 303.785156 221.589844 305.96875 217.761719 305.6875 C 213.925781 305.402344 213.117188 304.382812 211.746094 303.960938 C 210.375 303.539062 205.382812 301.636719 204.820312 300.652344 C 204.257812 299.667969 203.625 296.851562 205.03125 295.375 C 206.4375 293.894531 206.535156 294.316406 207.59375 294.5625 C 208.652344 294.8125 211.667969 296.183594 212.921875 296.710938 C 214.171875 297.238281 218.570312 297.800781 218.570312 297.800781 L 220.726562 300.253906 " fill-opacity="1" fill-rule="nonzero"/><path fill="rgb(90.19928%, 57.249451%, 53.729248%)" d="M 240 226.882812 C 240 226.882812 241.582031 228.453125 242.058594 230.097656 C 242.53125 231.742188 241.027344 234.941406 241.027344 234.941406 C 241.027344 234.941406 240.648438 235.5 240 235.703125 C 239.347656 235.910156 238.730469 235.382812 238.730469 235.382812 C 238.730469 235.382812 238.378906 236.203125 237.886719 236.175781 C 237.398438 236.152344 236.921875 235.820312 236.921875 235.820312 C 236.921875 235.820312 235.914062 236.652344 235.671875 235.703125 C 235.433594 234.757812 236.921875 233.242188 236.921875 233.242188 L 236.921875 230.265625 L 236.625 227.148438 L 240 226.882812 " fill-opacity="1" fill-rule="nonzero"/><path fill="rgb(97.648621%, 69.018555%, 67.83905%)" d="M 230.148438 192.304688 C 230.148438 192.304688 231.984375 189.984375 234.832031 191.300781 C 237.679688 192.621094 240.054688 194.46875 240.476562 197.371094 C 240.898438 200.273438 241.160156 203.707031 241.796875 205.238281 C 242.425781 206.769531 243.585938 211.257812 243.691406 212.734375 C 243.796875 214.210938 243.113281 219.703125 243.113281 221.445312 C 243.113281 223.1875 243.113281 224.980469 243.113281 224.980469 C 243.113281 224.980469 244.136719 231.175781 243.703125 231.878906 C 243.269531 232.585938 242.691406 234.546875 242.214844 234.621094 C 241.742188 234.695312 240.898438 234.621094 240.898438 234.621094 C 240.898438 234.621094 239.789062 231.933594 240.210938 231.96875 C 240.632812 232.003906 241 232.21875 241 232.21875 L 241.53125 232.957031 L 241.742188 231.878906 C 241.742188 231.878906 241.109375 230.777344 241.003906 230.097656 C 240.898438 229.417969 239.894531 228.785156 239.578125 227.9375 C 239.261719 227.09375 239.105469 229.101562 237.890625 229.046875 C 236.679688 228.996094 236.414062 230.058594 236.257812 230.265625 C 236.097656 230.472656 235.992188 231.738281 235.464844 232.109375 C 234.9375 232.476562 234.488281 232.769531 234.410156 232.503906 C 234.328125 232.242188 234.015625 231.816406 234.410156 231.105469 C 234.804688 230.394531 234.804688 229.945312 234.804688 229.339844 C 234.804688 228.730469 235.199219 227.726562 235.199219 227.726562 L 238.605469 223.582031 C 238.605469 223.582031 239.15625 218.804688 238.578125 216.375 C 237.996094 213.949219 237.996094 211.730469 237.996094 211.730469 C 237.996094 211.730469 235.046875 204.867188 234.570312 203.761719 C 234.09375 202.652344 229.261719 196.421875 230.148438 192.304688 " fill-opacity="1" fill-rule="nonzero"/><path fill="rgb(16.079712%, 19.999695%, 27.449036%)" d="M 229.039062 191.5625 C 229.039062 191.5625 234.121094 188.089844 238.898438 192.828125 C 243.671875 197.566406 241.5625 200.945312 242.621094 204.253906 C 243.671875 207.5625 243.808594 209.039062 243.808594 209.039062 C 243.808594 209.039062 243.882812 212.6875 240.226562 211.710938 C 236.570312 210.730469 235.726562 209.355469 235.726562 209.355469 C 235.726562 209.355469 230.824219 197.496094 230.144531 196.300781 C 229.46875 195.101562 229.039062 191.5625 229.039062 191.5625 " fill-opacity="1" fill-rule="nonzero"/><path fill="rgb(25.099182%, 38.038635%, 71.369934%)" d="M 226.765625 231.226562 C 226.765625 231.226562 227.824219 237.757812 226.765625 242.195312 C 225.707031 246.628906 218.742188 268.378906 220.222656 274.820312 C 221.699219 281.261719 223.414062 280.519531 222.664062 284.742188 C 221.910156 288.96875 221.589844 296.464844 221.589844 298.472656 C 221.589844 300.476562 221.601562 300.757812 221.601562 300.757812 C 221.601562 300.757812 220.855469 303.433594 217.480469 302.589844 C 214.101562 301.742188 211.78125 298.363281 211.359375 296.992188 C 210.9375 295.617188 211.464844 294.050781 211.464844 294.050781 C 211.464844 294.050781 211.253906 287.804688 210.621094 282.210938 C 209.988281 276.613281 209.882812 272.179688 208.828125 270.066406 C 207.773438 267.957031 208.300781 267.746094 207.773438 264.894531 C 207.246094 262.042969 204.925781 250.21875 205.769531 245.886719 C 206.613281 241.558594 208.722656 227.515625 208.722656 227.515625 L 226.765625 231.226562 " fill-opacity="1" fill-rule="nonzero"/><path fill="rgb(16.079712%, 19.999695%, 27.449036%)" d="M 207.042969 227.523438 C 206.816406 229.417969 208.15625 231.226562 208.15625 231.226562 C 208.15625 231.226562 209.578125 232.984375 212.898438 234.253906 C 214.445312 234.847656 216.425781 235.347656 218.859375 235.488281 C 226.453125 235.957031 233.558594 229.679688 233.558594 229.679688 C 233.558594 229.679688 233.507812 222.445312 233.609375 220.375 C 233.714844 218.289062 234.773438 211.15625 235.730469 209.347656 C 236.667969 207.554688 237.105469 201.851562 237.207031 198.878906 C 237.3125 195.902344 234.878906 192.042969 231.507812 191.382812 C 228.136719 190.71875 224.871094 194.269531 224.871094 194.269531 C 224.871094 194.269531 215.679688 200.375 211.578125 201.398438 C 208.484375 202.164062 207.894531 202.632812 207.164062 203.714844 C 206.902344 204.09375 206.660156 204.511719 206.296875 205.035156 C 204.820312 207.140625 208.519531 218.757812 208.519531 218.757812 C 208.519531 218.757812 208.085938 221.609375 207.980469 222.097656 C 207.875 222.585938 207.25 225.609375 207.042969 227.523438 " fill-opacity="1" fill-rule="nonzero"/><path fill="rgb(10.198975%, 12.548828%, 16.079712%)" d="M 207.042969 227.523438 C 206.816406 229.417969 208.15625 231.226562 208.15625 231.226562 C 208.15625 231.226562 209.578125 232.984375 212.898438 234.253906 C 212.898438 233.332031 212.914062 232.53125 212.949219 232.027344 C 213.054688 229.957031 214.34375 230.65625 215.285156 228.867188 C 216.238281 227.074219 213.683594 215.75 213.785156 212.773438 C 213.90625 209.800781 213.460938 205.691406 210.089844 205.03125 C 208.785156 204.769531 208.257812 203.175781 207.164062 203.714844 C 206.902344 204.09375 206.660156 204.511719 206.296875 205.035156 C 204.820312 207.140625 208.519531 218.757812 208.519531 218.757812 C 208.519531 218.757812 208.085938 221.609375 207.980469 222.097656 C 207.875 222.585938 207.25 225.609375 207.042969 227.523438 " fill-opacity="1" fill-rule="nonzero"/><path fill="rgb(90.19928%, 57.249451%, 53.729248%)" d="M 226.636719 190.878906 C 226.636719 190.878906 226.515625 193.976562 227.429688 194.539062 C 228.34375 195.101562 228.625 194.539062 229.46875 195.101562 C 230.3125 195.664062 229.539062 197.285156 228.835938 198.128906 C 228.132812 198.972656 225.109375 200.804688 222.363281 200.664062 C 219.621094 200.523438 218.503906 199.875 217.621094 199.363281 C 216.738281 198.855469 216.480469 199.296875 216.480469 199.296875 C 216.480469 199.296875 218.214844 198.058594 218.144531 197.355469 C 218.074219 196.648438 217.898438 192.003906 217.617188 191.300781 C 217.335938 190.597656 226.636719 190.878906 226.636719 190.878906 " fill-opacity="1" fill-rule="nonzero"/><path fill="rgb(11.369324%, 10.978699%, 11.369324%)" d="M 226.917969 191.300781 C 226.917969 191.054688 227.816406 189.152344 229.152344 187.429688 C 230.488281 185.703125 229.417969 178.765625 227.273438 176.511719 C 225.128906 174.257812 221.03125 173.195312 218.289062 173.582031 C 215.542969 173.96875 212.027344 178.417969 212.484375 182.253906 C 212.941406 186.09375 214.207031 188.0625 214.980469 188.871094 C 215.753906 189.683594 217.859375 191.058594 218.496094 192.144531 C 219.796875 194.363281 222.121094 192.820312 222.121094 192.820312 L 226.917969 191.300781 " fill-opacity="1" fill-rule="nonzero"/><path fill="rgb(90.19928%, 57.249451%, 53.729248%)" d="M 213.1875 181.832031 L 212.457031 181.195312 C 212.457031 181.195312 211.738281 182.886719 212.097656 183.980469 C 212.457031 185.070312 212.6875 185.203125 212.59375 185.527344 C 212.109375 187.160156 213.664062 190.078125 214.074219 191.269531 C 214.910156 193.695312 215.683594 193.199219 216.636719 193.199219 C 217.582031 193.199219 218.109375 194.003906 219.144531 194.101562 C 220.179688 194.203125 221.769531 193.023438 221.769531 193.023438 C 221.769531 193.023438 220.785156 193.480469 219.765625 192.917969 C 218.742188 192.355469 217.96875 191.617188 217.96875 191.617188 C 217.96875 191.617188 218.886719 191.691406 219.449219 191.300781 C 220.011719 190.914062 220.75 187.347656 219.023438 187.652344 C 217.300781 187.957031 216.320312 188.800781 216.320312 188.800781 C 216.320312 188.800781 215.402344 185.8125 214.628906 184.191406 C 213.855469 182.574219 213.1875 181.832031 213.1875 181.832031 " fill-opacity="1" fill-rule="nonzero"/><path fill="rgb(90.19928%, 57.249451%, 53.729248%)" d="M 202.886719 201.648438 C 202.886719 201.648438 200.425781 206.363281 199.582031 208.96875 C 198.738281 211.574219 198.242188 216.570312 197.960938 218.117188 C 197.679688 219.667969 191.070312 223.609375 191.070312 223.609375 C 191.070312 223.609375 188.890625 217.695312 191.070312 213.929688 C 193.25 210.164062 198.667969 199.609375 198.667969 199.609375 C 198.667969 199.609375 201.589844 193.0625 202.273438 192.917969 C 202.957031 192.777344 203.199219 192.917969 203.199219 192.917969 C 203.199219 192.917969 203.683594 192.355469 204.292969 192.488281 C 204.898438 192.621094 205.066406 192.71875 205.125 192.753906 C 205.183594 192.785156 206.085938 192.507812 206.453125 192.648438 C 206.824219 192.785156 207.457031 193.597656 207.457031 193.597656 C 207.457031 193.597656 208.484375 192.332031 209.171875 192.355469 C 209.855469 192.382812 210.9375 193.34375 210.9375 193.34375 C 210.9375 193.34375 211.570312 195.050781 211.386719 195.128906 C 211.203125 195.207031 210.664062 195.359375 210.4375 194.996094 C 210.210938 194.632812 209.910156 194.109375 209.910156 194.109375 L 209.433594 194.109375 L 208.011719 195.578125 L 207.246094 197.6875 C 207.246094 197.6875 207.429688 197.1875 208.140625 197.449219 C 208.855469 197.714844 208.671875 197.636719 208.617188 198.347656 C 208.5625 199.0625 208.457031 200.390625 208.117188 200.671875 C 207.773438 200.949219 205.507812 202.105469 205.351562 202.105469 C 205.191406 202.105469 202.886719 201.648438 202.886719 201.648438 " fill-opacity="1" fill-rule="nonzero"/><path fill="rgb(97.648621%, 69.018555%, 67.83905%)" d="M 213.785156 209.25 C 213.785156 209.25 213.640625 213.390625 211.042969 216.289062 C 208.449219 219.1875 200.777344 223.679688 198.03125 224.242188 C 195.289062 224.808594 191.914062 224.597656 191.070312 223.609375 C 190.226562 222.625 191.140625 216.851562 193.390625 215.867188 C 195.644531 214.882812 199.15625 213.050781 200.5625 211.433594 C 201.972656 209.8125 205.835938 204.054688 207.351562 203.449219 C 208.863281 202.84375 213.152344 204.113281 213.785156 209.25 " fill-opacity="1" fill-rule="nonzero"/><path fill="rgb(16.079712%, 19.999695%, 27.449036%)" d="M 212.445312 205.097656 C 212.445312 205.097656 215.402344 207.855469 213.785156 212.773438 C 212.167969 217.699219 207.214844 220.5625 207.214844 220.5625 C 207.214844 220.5625 201.480469 221.710938 200.214844 217.910156 C 198.949219 214.105469 199.863281 211.222656 199.863281 211.222656 C 199.863281 211.222656 203.941406 203.847656 206.402344 203.308594 C 208.863281 202.773438 211.070312 202.859375 212.445312 205.097656 " fill-opacity="1" fill-rule="nonzero"/></svg>